SplineFontDB: 3.2
FontName: Vrude-Regular
FullName: Vrude Regular
FamilyName: Vrude
Weight: Regular
Copyright: Copyright 2017 The Playfair Display Project Authors (https://github.com/clauseggers/Playfair-Display), with Reserved Font Name "Playfair Display".\n\nModified into Vrude for Lojban/Zbalermorna in 2020 by Jack Humbert
Version: 1.200;
DefaultBaseFilename: vrude-regular
ItalicAngle: 0
UnderlinePosition: -110
UnderlineWidth: 20
Ascent: 800
Descent: 200
InvalidEm: 0
sfntRevision: 0x00013333
LayerCount: 2
Layer: 0 0 "Back" 1
Layer: 1 0 "Fore" 0
XUID: [1021 647 -312734098 17743]
StyleMap: 0x0040
FSType: 0
OS2Version: 4
OS2_WeightWidthSlopeOnly: 0
OS2_UseTypoMetrics: 0
CreationTime: 1438840825
ModificationTime: 1590510654
PfmFamily: 33
TTFWeight: 400
TTFWidth: 5
LineGap: 0
VLineGap: 0
Panose: 2 15 5 2 2 2 4 3 2 3
OS2TypoAscent: 750
OS2TypoAOffset: 0
OS2TypoDescent: -250
OS2TypoDOffset: 0
OS2TypoLinegap: 198
OS2WinAscent: 816
OS2WinAOffset: 0
OS2WinDescent: 313
OS2WinDOffset: 0
HheadAscent: 750
HheadAOffset: 0
HheadDescent: -250
HheadDOffset: 0
OS2SubXSize: 692
OS2SubYSize: 642
OS2SubXOff: 0
OS2SubYOff: 138
OS2SupXSize: 692
OS2SupYSize: 642
OS2SupXOff: 0
OS2SupYOff: 471
OS2StrikeYSize: 44
OS2StrikeYPos: 272
OS2CapHeight: 750
OS2XHeight: 500
OS2Vendor: 'JH  '
OS2CodePages: 2002019f.00000000
OS2UnicodeRanges: 80000001.10000002.00000000.00000000
Lookup: 4 0 1 "zlmFF" { "zlmFF subtable"  } ['liga' ('latn' <'dflt' > 'DFLT' <'dflt' > ) ]
Lookup: 4 0 1 "zlmSFF" { "zlmSFF subtable"  } ['liga' ('latn' <'dflt' > 'DFLT' <'dflt' > ) ]
Lookup: 4 0 1 "zlmSF" { "zlmSF subtable"  } ['liga' ('latn' <'dflt' > 'DFLT' <'dflt' > ) ]

StartChar: exclam
Encoding: 1 33 1
Width: 262
Flags: HW
LayerCount: 2
Fore
SplineSet
131 782 m 256
 143.666666667 782 154.5 777.666666667 163.5 769 c 128
 172.5 760.333333333 177 746 177 726 c 0
 177 700 175.166666667 667.666666667 171.5 629 c 128
 167.833333333 590.333333333 163.5 547.5 158.5 500.5 c 128
 153.5 453.5 149.166666667 404.166666667 145.5 352.5 c 128
 141.833333333 300.833333333 140 248.666666667 140 196 c 1
 140 196 l 1
 122 196 l 1
 122 248.666666667 120.166666667 300.833333333 116.5 352.5 c 128
 112.833333333 404.166666667 108.5 453.5 103.5 500.5 c 128
 98.5 547.5 94.1666666667 590.333333333 90.5 629 c 128
 86.8333333333 667.666666667 85 700 85 726 c 0
 85 746 89.5 760.333333333 98.5 769 c 128
 107.5 777.666666667 118.333333333 782 131 782 c 256
131 114 m 256
 148.333333333 114 163.333333333 107.666666667 176 95 c 128
 188.666666667 82.3333333333 195 67.3333333333 195 50 c 256
 195 32.6666666667 188.666666667 17.6666666667 176 5 c 128
 163.333333333 -7.66666666667 148.333333333 -14 131 -14 c 256
 113.666666667 -14 98.6666666667 -7.66666666667 86 5 c 128
 73.3333333333 17.6666666667 67 32.6666666667 67 50 c 256
 67 67.3333333333 73.3333333333 82.3333333333 86 95 c 128
 98.6666666667 107.666666667 113.666666667 114 131 114 c 256
EndSplineSet
EndChar

StartChar: question
Encoding: 13 63 2
Width: 459
Flags: HW
LayerCount: 2
Fore
SplineSet
215 782 m 0
 277.666666667 782 328.333333333 766 367 734 c 128
 405.666666667 702 425 658 425 602 c 0
 425 545.333333333 404.333333333 498.5 363 461.5 c 128
 321.666666667 424.5 267.333333333 397.333333333 200 380 c 1
 200 234 l 1
 180 234 l 1
 180 389 l 1
 224.666666667 405.666666667 258 424 280 444 c 128
 302 464 316.833333333 485.666666667 324.5 509 c 128
 332.166666667 532.333333333 336 557 336 583 c 0
 336 646.333333333 323 692 297 720 c 128
 271 748 237.333333333 762 196 762 c 0
 180 762 162.5 759.666666667 143.5 755 c 128
 124.5 750.333333333 109.333333333 740.666666667 98 726 c 1
 110.666666667 723.333333333 120.833333333 717.666666667 128.5 709 c 128
 136.166666667 700.333333333 140 689 140 675 c 0
 140 658.333333333 134.666666667 645.166666667 124 635.5 c 128
 113.333333333 625.833333333 100.333333333 621 85 621 c 256
 69.6666666667 621 57 626 47 636 c 128
 37 646 32 658.666666667 32 674 c 0
 32 688 36.3333333333 701.166666667 45 713.5 c 128
 53.6666666667 725.833333333 65 736.666666667 79 746 c 256
 93 755.333333333 111.166666667 763.666666667 133.5 771 c 128
 155.833333333 778.333333333 183 782 215 782 c 0
191 114 m 256
 208.333333333 114 223.333333333 107.666666667 236 95 c 128
 248.666666667 82.3333333333 255 67.3333333333 255 50 c 256
 255 32.6666666667 248.666666667 17.6666666667 236 5 c 128
 223.333333333 -7.66666666667 208.333333333 -14 191 -14 c 256
 173.666666667 -14 158.666666667 -7.66666666667 146 5 c 128
 133.333333333 17.6666666667 127 32.6666666667 127 50 c 256
 127 67.3333333333 133.333333333 82.3333333333 146 95 c 128
 158.666666667 107.666666667 173.666666667 114 191 114 c 256
EndSplineSet
EndChar

StartChar: semicolon
Encoding: 10 59 3
Width: 285
Flags: HW
LayerCount: 2
Fore
SplineSet
144 528 m 260
 161.333333333 528 176.333333333 521.666666667 189 509 c 132
 201.666666667 496.333333333 208 481.333333333 208 464 c 260
 208 446.666666667 201.666666667 431.666666667 189 419 c 132
 176.333333333 406.333333333 161.333333333 400 144 400 c 260
 126.666666667 400 111.666666667 406.333333333 99 419 c 132
 86.3333333333 431.666666667 80 446.666666667 80 464 c 260
 80 481.333333333 86.3333333333 496.333333333 99 509 c 132
 111.666666667 521.666666667 126.666666667 528 144 528 c 260
137 114 m 4
 151.666666667 114 163.666666667 111 173 105 c 132
 182.333333333 99 190 91.3333333333 196 82 c 4
 203.333333333 71.3333333333 208 59.6666666667 210 47 c 132
 212 34.3333333333 213 24 213 16 c 4
 213 -16.6666666667 204.666666667 -46.3333333333 188 -73 c 132
 171.333333333 -99.6666666667 145.333333333 -121.333333333 110 -138 c 5
 101 -120 l 5
 121.666666667 -111.333333333 139.5 -97.6666666667 154.5 -79 c 132
 169.5 -60.3333333333 177 -41.3333333333 177 -22 c 4
 177 -14 176 -7 174 -1 c 5
 163.333333333 -9.66666666667 151 -14 137 -14 c 4
 119.666666667 -14 104.666666667 -8.33333333333 92 3 c 132
 79.3333333333 14.3333333333 73 30 73 50 c 4
 73 68.6666666667 79.3333333333 84 92 96 c 132
 104.666666667 108 119.666666667 114 137 114 c 4
EndSplineSet
EndChar

StartChar: colon
Encoding: 9 58 4
Width: 266
Flags: HW
LayerCount: 2
Fore
SplineSet
133 114 m 260
 150.333333333 114 165.333333333 107.666666667 178 95 c 132
 190.666666667 82.3333333333 197 67.3333333333 197 50 c 260
 197 32.6666666667 190.666666667 17.6666666667 178 5 c 132
 165.333333333 -7.66666666667 150.333333333 -14 133 -14 c 260
 115.666666667 -14 100.666666667 -7.66666666667 88 5 c 132
 75.3333333333 17.6666666667 69 32.6666666667 69 50 c 260
 69 67.3333333333 75.3333333333 82.3333333333 88 95 c 132
 100.666666667 107.666666667 115.666666667 114 133 114 c 260
133 528 m 260
 150.333333333 528 165.333333333 521.666666667 178 509 c 132
 190.666666667 496.333333333 197 481.333333333 197 464 c 260
 197 446.666666667 190.666666667 431.666666667 178 419 c 132
 165.333333333 406.333333333 150.333333333 400 133 400 c 260
 115.666666667 400 100.666666667 406.333333333 88 419 c 132
 75.3333333333 431.666666667 69 446.666666667 69 464 c 260
 69 481.333333333 75.3333333333 496.333333333 88 509 c 132
 100.666666667 521.666666667 115.666666667 528 133 528 c 260
EndSplineSet
EndChar

StartChar: guillemotleft
Encoding: 18 171 5
Width: 502
Flags: HW
LayerCount: 2
Fore
SplineSet
262 529 m 1
 279 522 l 1
 263 478.666666667 246 441.166666667 228 409.5 c 128
 210 377.833333333 191.166666667 350.166666667 171.5 326.5 c 128
 151.833333333 302.833333333 130.333333333 281 107 261 c 1
 130.333333333 241 151.833333333 218.666666667 171.5 194 c 128
 191.166666667 169.333333333 210 140.666666667 228 108 c 128
 246 75.3333333333 263 37 279 -7 c 1
 262 -14 l 1
 234.666666667 47.3333333333 202.833333333 100.5 166.5 145.5 c 128
 130.166666667 190.5 85.3333333333 227.666666667 32 257 c 1
 32 258 l 1
 85.3333333333 287.333333333 130.166666667 324.5 166.5 369.5 c 128
 202.833333333 414.5 234.666666667 467.666666667 262 529 c 1
437 529 m 1
 454 522 l 1
 438 478.666666667 421 441.166666667 403 409.5 c 128
 385 377.833333333 366.166666667 350.166666667 346.5 326.5 c 128
 326.833333333 302.833333333 305.333333333 281 282 261 c 1
 305.333333333 241 326.833333333 218.666666667 346.5 194 c 128
 366.166666667 169.333333333 385 140.666666667 403 108 c 128
 421 75.3333333333 438 37 454 -7 c 1
 437 -14 l 1
 409.666666667 47.3333333333 377.833333333 100.5 341.5 145.5 c 128
 305.166666667 190.5 260.333333333 227.666666667 207 257 c 1
 207 258 l 1
 260.333333333 287.333333333 305.166666667 324.5 341.5 369.5 c 128
 377.833333333 414.5 409.666666667 467.666666667 437 529 c 1
EndSplineSet
EndChar

StartChar: guillemotright
Encoding: 19 187 6
Width: 501
Flags: HW
LayerCount: 2
Fore
SplineSet
240 528 m 1
 267.333333333 466.666666667 299.333333333 413.5 336 368.5 c 128
 372.666666667 323.5 417.333333333 286.333333333 470 257 c 1
 470 256 l 1
 417.333333333 226.666666667 372.666666667 189.5 336 144.5 c 128
 299.333333333 99.5 267.333333333 46.3333333333 240 -15 c 1
 223 -8 l 1
 239.666666667 36 256.833333333 73.6666666667 274.5 105 c 128
 292.166666667 136.333333333 311 163.833333333 331 187.5 c 128
 351 211.166666667 372.333333333 233 395 253 c 1
 372.333333333 273 351 295.333333333 331 320 c 128
 311 344.666666667 292.166666667 373.5 274.5 406.5 c 128
 256.833333333 439.5 239.666666667 477.666666667 223 521 c 1
 240 528 l 1
65 528 m 1
 92.3333333333 466.666666667 124.333333333 413.5 161 368.5 c 128
 197.666666667 323.5 242.333333333 286.333333333 295 257 c 1
 295 256 l 1
 242.333333333 226.666666667 197.666666667 189.5 161 144.5 c 128
 124.333333333 99.5 92.3333333333 46.3333333333 65 -15 c 1
 48 -8 l 1
 64.6666666667 36 81.8333333333 73.6666666667 99.5 105 c 128
 117.166666667 136.333333333 136 163.833333333 156 187.5 c 128
 176 211.166666667 197.333333333 233 220 253 c 1
 197.333333333 273 176 295.333333333 156 320 c 128
 136 344.666666667 117.166666667 373.5 99.5 406.5 c 128
 81.8333333333 439.5 64.6666666667 477.666666667 48 521 c 1
 65 528 l 1
EndSplineSet
EndChar

StartChar: parenright
Encoding: 8 41 8
Width: 294
Flags: HW
LayerCount: 2
Fore
SplineSet
30 806 m 1
 97.3333333333 744.666666667 150.833333333 672.833333333 190.5 590.5 c 128
 230.166666667 508.166666667 250 415.333333333 250 312 c 256
 250 208.666666667 230.166666667 115.833333333 190.5 33.5 c 128
 150.833333333 -48.8333333333 97.3333333333 -120.666666667 30 -182 c 1
 16 -169 l 1
 72 -103.666666667 111 -32.1666666667 133 45.5 c 128
 155 123.166666667 166 212 166 312 c 256
 166 412 155 500.833333333 133 578.5 c 128
 111 656.166666667 72 727.666666667 16 793 c 1
 30 806 l 1
EndSplineSet
EndChar

StartChar: bracketleft
Encoding: 14 91 9
Width: 296
Flags: HW
LayerCount: 2
Fore
SplineSet
263 772 m 1
 263 753 l 1
 182 753 l 1
 182 -162 l 1
 263 -162 l 1
 263 -181 l 1
 92 -181 l 1
 92 772 l 1
 263 772 l 1
EndSplineSet
EndChar

StartChar: braceleft
Encoding: 16 123 11
Width: 304
Flags: HW
LayerCount: 2
Fore
SplineSet
278 782 m 1
 278 763 l 1
 256 762.333333333 239.333333333 757.5 228 748.5 c 128
 216.666666667 739.5 208.833333333 720.166666667 204.5 690.5 c 128
 200.166666667 660.833333333 198 614.333333333 198 551 c 0
 198 491 191.333333333 444 178 410 c 128
 164.666666667 376 147.166666667 350.833333333 125.5 334.5 c 128
 103.833333333 318.166666667 80.3333333333 306.333333333 55 299 c 1
 80.3333333333 291.666666667 103.833333333 279.666666667 125.5 263 c 128
 147.166666667 246.333333333 164.666666667 221.166666667 178 187.5 c 128
 191.333333333 153.833333333 198 107 198 47 c 0
 198 -2.33333333333 199.166666667 -41.3333333333 201.5 -70 c 128
 203.833333333 -98.6666666667 207.833333333 -120.166666667 213.5 -134.5 c 128
 219.166666667 -148.833333333 227.333333333 -158.166666667 238 -162.5 c 128
 248.666666667 -166.833333333 262 -169 278 -169 c 1
 278 -188 l 1
 236 -188 202.5 -181.166666667 177.5 -167.5 c 128
 152.5 -153.833333333 134.666666667 -130 124 -96 c 128
 113.333333333 -62 108 -14.3333333333 108 47 c 0
 108 109.666666667 105.833333333 158.166666667 101.5 192.5 c 128
 97.1666666667 226.833333333 89.6666666667 251.333333333 79 266 c 128
 68.3333333333 280.666666667 52.6666666667 288.666666667 32 290 c 2
 27 290 l 1
 27 308 l 1
 32 308 l 2
 52.6666666667 309.333333333 68.3333333333 317.166666667 79 331.5 c 128
 89.6666666667 345.833333333 97.1666666667 370.333333333 101.5 405 c 128
 105.833333333 439.666666667 108 488.333333333 108 551 c 0
 108 609.666666667 113.333333333 655.833333333 124 689.5 c 128
 134.666666667 723.166666667 152.5 747 177.5 761 c 128
 202.5 775 236 782 278 782 c 1
EndSplineSet
EndChar

StartChar: quotedbl
Encoding: 2 34 13
Width: 298
Flags: HW
LayerCount: 2
Fore
SplineSet
204 730 m 0
 214 730 222.5 726 229.5 718 c 128
 236.5 710 240 698.666666667 240 684 c 0
 240 662 238.666666667 641.5 236 622.5 c 128
 233.333333333 603.5 229.833333333 582.166666667 225.5 558.5 c 128
 221.166666667 534.833333333 216.333333333 504.666666667 211 468 c 1
 197 468 l 1
 192.333333333 502.666666667 187.666666667 531.833333333 183 555.5 c 128
 178.333333333 579.166666667 174.666666667 600.833333333 172 620.5 c 128
 169.333333333 640.166666667 168 661 168 683 c 0
 168 697.666666667 171.5 709 178.5 717 c 128
 185.5 725 194 729.333333333 204 730 c 0
95 730 m 0
 105 730 113.5 726 120.5 718 c 128
 127.5 710 131 698.666666667 131 684 c 0
 131 662 129.666666667 641.5 127 622.5 c 128
 124.333333333 603.5 120.833333333 582.166666667 116.5 558.5 c 128
 112.166666667 534.833333333 107.333333333 504.666666667 102 468 c 1
 88 468 l 1
 83.3333333333 502.666666667 78.6666666667 531.833333333 74 555.5 c 128
 69.3333333333 579.166666667 65.6666666667 600.833333333 63 620.5 c 128
 60.3333333333 640.166666667 59 661 59 683 c 0
 59 697.666666667 62.5 709 69.5 717 c 128
 76.5 725 85 729.333333333 95 730 c 0
EndSplineSet
EndChar

StartChar: ampersand
Encoding: 6 38 14
Width: 837
Flags: HW
LayerCount: 2
Fore
SplineSet
307 702 m 0
 332.333333333 702 353.333333333 699.166666667 370 693.5 c 128
 386.666666667 687.833333333 400.333333333 680.666666667 411 672 c 0
 424.333333333 661.333333333 433.833333333 649.833333333 439.5 637.5 c 128
 445.166666667 625.166666667 448 613.666666667 448 603 c 0
 448 586.333333333 442.166666667 573.333333333 430.5 564 c 128
 418.833333333 554.666666667 406 550 392 550 c 0
 378.666666667 550 366.666666667 554.333333333 356 563 c 128
 345.333333333 571.666666667 340 584 340 600 c 0
 340 614.666666667 345 627.166666667 355 637.5 c 128
 365 647.833333333 377.666666667 653.666666667 393 655 c 1
 390.333333333 663.666666667 382.166666667 671.166666667 368.5 677.5 c 128
 354.833333333 683.833333333 337.666666667 687 317 687 c 0
 283 687 255.166666667 676.833333333 233.5 656.5 c 128
 211.833333333 636.166666667 201 606.666666667 201 568 c 0
 201 549.333333333 204.5 530.333333333 211.5 511 c 128
 218.5 491.666666667 232 472.666666667 252 454 c 1
 263.333333333 456 275 457.5 287 458.5 c 128
 299 459.5 308 460 314 460 c 0
 340.666666667 460 354 452.333333333 354 437 c 0
 354 431 351.5 426.333333333 346.5 423 c 128
 341.5 419.666666667 334.666666667 418 326 418 c 0
 313.333333333 418 300 420.833333333 286 426.5 c 128
 272 432.166666667 261 436.666666667 253 440 c 1
 214.333333333 428.666666667 183 410.166666667 159 384.5 c 128
 135 358.833333333 123 322.666666667 123 276 c 0
 123 230 135 191 159 159 c 128
 183 127 215.166666667 102.5 255.5 85.5 c 128
 295.833333333 68.5 341 60 391 60 c 0
 426.333333333 60 459.833333333 64.1666666667 491.5 72.5 c 128
 523.166666667 80.8333333333 551.166666667 93 575.5 109 c 128
 599.833333333 125 619 144.166666667 633 166.5 c 128
 647 188.833333333 654 214.333333333 654 243 c 0
 654 255.666666667 651.333333333 271.833333333 646 291.5 c 128
 640.666666667 311.166666667 629.666666667 330.5 613 349.5 c 128
 596.333333333 368.5 570.666666667 383.333333333 536 394 c 1
 548 404 l 1
 596.666666667 389.333333333 631.333333333 365.833333333 652 333.5 c 128
 672.666666667 301.166666667 683 265 683 225 c 256
 683 185 671 146.666666667 647 110 c 128
 623 73.3333333333 588.333333333 43.5 543 20.5 c 128
 497.666666667 -2.5 442.666666667 -14 378 -14 c 0
 320.666666667 -14 267.333333333 -4 218 16 c 128
 168.666666667 36 129 64.6666666667 99 102 c 128
 69 139.333333333 54 183.666666667 54 235 c 0
 54 271 61 301.833333333 75 327.5 c 128
 89 353.166666667 106.333333333 374.333333333 127 391 c 128
 147.666666667 407.666666667 168.333333333 420.5 189 429.5 c 128
 209.666666667 438.5 226.333333333 444.666666667 239 448 c 1
 205.666666667 462.666666667 180.5 481.666666667 163.5 505 c 128
 146.5 528.333333333 138 552.333333333 138 577 c 0
 138 593 141.666666667 608.5 149 623.5 c 128
 156.333333333 638.5 167 652 181 664 c 128
 195 676 212.5 685.333333333 233.5 692 c 128
 254.5 698.666666667 279 702 307 702 c 0
671 722 m 0
 712.333333333 722 747 710.166666667 775 686.5 c 128
 803 662.833333333 817 629.666666667 817 587 c 0
 817 553 807.833333333 524.5 789.5 501.5 c 128
 771.166666667 478.5 748.666666667 460.333333333 722 447 c 0
 706.666666667 439.666666667 686.5 431.666666667 661.5 423 c 128
 636.5 414.333333333 609.833333333 405.666666667 581.5 397 c 128
 553.166666667 388.333333333 526.166666667 379.833333333 500.5 371.5 c 128
 474.833333333 363.166666667 454 356 438 350 c 0
 413.333333333 340.666666667 392.5 329.166666667 375.5 315.5 c 128
 358.5 301.833333333 350 284.333333333 350 263 c 0
 350 245.666666667 355 231 365 219 c 128
 375 207 387.166666667 198 401.5 192 c 128
 415.833333333 186 429.333333333 183 442 183 c 0
 451.333333333 183 463.166666667 184.833333333 477.5 188.5 c 128
 491.833333333 192.166666667 500 197.666666667 502 205 c 1
 491.333333333 207 480.833333333 211.833333333 470.5 219.5 c 128
 460.166666667 227.166666667 455 239.333333333 455 256 c 0
 455 272 460.333333333 284.666666667 471 294 c 128
 481.666666667 303.333333333 494.666666667 308 510 308 c 0
 526 308 538.833333333 303 548.5 293 c 128
 558.166666667 283 563 270 563 254 c 0
 563 235.333333333 556.833333333 219.5 544.5 206.5 c 128
 532.166666667 193.5 516.833333333 183.833333333 498.5 177.5 c 128
 480.166666667 171.166666667 462 168 444 168 c 0
 425.333333333 168 406.333333333 172 387 180 c 128
 367.666666667 188 351.666666667 200.5 339 217.5 c 128
 326.333333333 234.5 320 257 320 285 c 0
 320 319.666666667 331.666666667 348.833333333 355 372.5 c 128
 378.333333333 396.166666667 412.666666667 415.666666667 458 431 c 0
 478 437.666666667 502.333333333 445 531 453 c 128
 559.666666667 461 589.166666667 469.666666667 619.5 479 c 128
 649.833333333 488.333333333 677.333333333 498.666666667 702 510 c 0
 735.333333333 525.333333333 758 541 770 557 c 128
 782 573 788 589.333333333 788 606 c 0
 788 634.666666667 776.5 658.666666667 753.5 678 c 128
 730.5 697.333333333 703.333333333 707 672 707 c 0
 664 707 657.333333333 706.333333333 652 705 c 128
 646.666666667 703.666666667 643.333333333 701.333333333 642 698 c 1
 651.333333333 693.333333333 658.333333333 686.666666667 663 678 c 128
 667.666666667 669.333333333 670 660.666666667 670 652 c 0
 670 638 664.5 626.333333333 653.5 617 c 128
 642.5 607.666666667 629.333333333 603 614 603 c 0
 601.333333333 603 589.333333333 607.166666667 578 615.5 c 128
 566.666666667 623.833333333 561 636.333333333 561 653 c 0
 561 670.333333333 566.833333333 684 578.5 694 c 128
 590.166666667 704 604.5 711.166666667 621.5 715.5 c 128
 638.5 719.833333333 655 722 671 722 c 0
EndSplineSet
EndChar

StartChar: dollar
Encoding: 4 36 15
Width: 523
Flags: HW
LayerCount: 2
Fore
SplineSet
247 719 m 0
 280.333333333 719 305.666666667 715.166666667 323 707.5 c 128
 340.333333333 699.833333333 355.666666667 691.333333333 369 682 c 0
 377 677.333333333 383.5 673.833333333 388.5 671.5 c 128
 393.5 669.166666667 398.333333333 668 403 668 c 0
 413.666666667 668 421 682.666666667 425 712 c 1
 448 712 l 1
 447.333333333 700.666666667 446.5 687.166666667 445.5 671.5 c 128
 444.5 655.833333333 443.833333333 635.166666667 443.5 609.5 c 128
 443.166666667 583.833333333 443 550 443 508 c 1
 420 508 l 1
 418 540 411 570.666666667 399 600 c 128
 387 629.333333333 369.5 653.333333333 346.5 672 c 128
 323.5 690.666666667 293.333333333 700 256 700 c 0
 220.666666667 700 191.5 689.333333333 168.5 668 c 128
 145.5 646.666666667 134 618.666666667 134 584 c 0
 134 561.333333333 138.5 541.666666667 147.5 525 c 128
 156.5 508.333333333 168.833333333 493.166666667 184.5 479.5 c 128
 200.166666667 465.833333333 218 452.833333333 238 440.5 c 128
 258 428.166666667 279.333333333 415 302 401 c 0
 336.666666667 379.666666667 367.5 358.5 394.5 337.5 c 128
 421.5 316.5 442.833333333 293.333333333 458.5 268 c 128
 474.166666667 242.666666667 482 212 482 176 c 0
 482 133.333333333 472.333333333 98 453 70 c 128
 433.666666667 42 408 21 376 7 c 128
 344 -7 308.666666667 -14 270 -14 c 0
 234.666666667 -14 206.666666667 -10 186 -2 c 128
 165.333333333 6 147.666666667 14.3333333333 133 23 c 0
 125 28.3333333333 118.333333333 32 113 34 c 128
 107.666666667 36 103 37 99 37 c 0
 88.3333333333 37 81 22.3333333333 77 -7 c 1
 54 -7 l 1
 55.3333333333 7 56.1666666667 23.5 56.5 42.5 c 128
 56.8333333333 61.5 57.1666666667 86.3333333333 57.5 117 c 128
 57.8333333333 147.666666667 58 186.333333333 58 233 c 1
 81 233 l 1
 83.6666666667 193 91.1666666667 155.666666667 103.5 121 c 128
 115.833333333 86.3333333333 134.833333333 58.5 160.5 37.5 c 128
 186.166666667 16.5 220.333333333 6 263 6 c 0
 295.666666667 6 325.5 16.5 352.5 37.5 c 128
 379.5 58.5 393 92.3333333333 393 139 c 0
 393 159 389.333333333 177.333333333 382 194 c 128
 374.666666667 210.666666667 364 226 350 240 c 128
 336 254 319.5 267.666666667 300.5 281 c 128
 281.5 294.333333333 260.333333333 308 237 322 c 0
 205.666666667 341.333333333 176.333333333 361 149 381 c 128
 121.666666667 401 99.8333333333 424.166666667 83.5 450.5 c 128
 67.1666666667 476.833333333 59 508.666666667 59 546 c 0
 59 585.333333333 67.8333333333 617.833333333 85.5 643.5 c 128
 103.166666667 669.166666667 126.333333333 688.166666667 155 700.5 c 128
 183.666666667 712.833333333 214.333333333 719 247 719 c 0
232 840 m 1
 232 -132 l 1
 212 -132 l 1
 212 840 l 1
 232 840 l 1
316 840 m 1
 316 -132 l 1
 296 -132 l 1
 296 840 l 1
 316 840 l 1
EndSplineSet
EndChar

StartChar: numbersign
Encoding: 3 35 16
Width: 637
Flags: HW
LayerCount: 2
Fore
SplineSet
471 602 m 1
 374 101 l 1
 354 101 l 1
 451 602 l 1
 471 602 l 1
553 267 m 1
 549 247 l 1
 48 247 l 1
 52 267 l 1
 553 267 l 1
284 602 m 1
 187 101 l 1
 167 101 l 1
 264 602 l 1
 284 602 l 1
589 454 m 1
 586 434 l 1
 85 434 l 1
 88 454 l 1
 589 454 l 1
EndSplineSet
EndChar

StartChar: less
Encoding: 11 60 17
Width: 608
Flags: HW
LayerCount: 2
Fore
SplineSet
517 582 m 1
 534 546 l 1
 125 355 l 1
 534 164 l 1
 517 128 l 1
 30 355 l 1
 517 582 l 1
EndSplineSet
EndChar

StartChar: percent
Encoding: 5 37 19
Width: 742
Flags: HW
LayerCount: 2
Fore
SplineSet
184 761 m 0
 228.666666667 761 264.666666667 746.666666667 292 718 c 128
 319.333333333 689.333333333 333 649.333333333 333 598 c 0
 333 547.333333333 319 506.666666667 291 476 c 128
 263 445.333333333 227.333333333 430 184 430 c 0
 139.333333333 430 103.333333333 444.333333333 76 473 c 128
 48.6666666667 501.666666667 35 541.666666667 35 593 c 0
 35 643 49.1666666667 683.5 77.5 714.5 c 128
 105.833333333 745.5 141.333333333 761 184 761 c 0
554 299 m 0
 502.666666667 299 477 249.333333333 477 150 c 0
 477 101.333333333 484.333333333 64.8333333333 499 40.5 c 128
 513.666666667 16.1666666667 533.333333333 4 558 4 c 0
 608.666666667 4 634 53.3333333333 634 152 c 0
 634 201.333333333 627 238.166666667 613 262.5 c 128
 599 286.833333333 579.333333333 299 554 299 c 0
556 317 m 0
 600.666666667 317 636.666666667 302.666666667 664 274 c 128
 691.333333333 245.333333333 705 205.333333333 705 154 c 0
 705 103.333333333 691 62.6666666667 663 32 c 128
 635 1.33333333333 599.333333333 -14 556 -14 c 0
 511.333333333 -14 475.333333333 0.333333333333 448 29 c 128
 420.666666667 57.6666666667 407 97.6666666667 407 149 c 0
 407 199 421.166666667 239.5 449.5 270.5 c 128
 477.833333333 301.5 513.333333333 317 556 317 c 0
182 743 m 0
 130.666666667 743 105 693.333333333 105 594 c 0
 105 545.333333333 112.333333333 508.833333333 127 484.5 c 128
 141.666666667 460.166666667 161.333333333 448 186 448 c 0
 236.666666667 448 262 497.333333333 262 596 c 0
 262 645.333333333 255 682.166666667 241 706.5 c 128
 227 730.833333333 207.333333333 743 182 743 c 0
660 824 m 1
 679 811 l 1
 94 -55 l 1
 75 -42 l 1
 660 824 l 1
EndSplineSet
EndChar

StartChar: NameMe.66773
Encoding: 256 -1 20
Width: 551
VWidth: 988
Flags: W
HStem: 0 21G<70 126.5 398 487> 480 20G<422 487>
VStem: 70 88<144.421 728> 398 89<0 357.625>
LayerCount: 2
Fore
SplineSet
70 728 m 1
 158 728 l 1
 158 192 l 2
 157 169 l 0
 157 161 157 153 156 144 c 1
 400 484 l 2
 402 486 404 489 407 492 c 0
 409 494 412 496 414 497 c 0
 416 498 420 500 424 500 c 0
 428 500 433 500 437 500 c 2
 487 500 l 1
 487 0 l 1
 398 0 l 1
 398 312 l 2
 399 334 l 0
 399 342 399 350 400 358 c 1
 156 17 l 2
 154 14 149 10 141 4 c 0
 137 1 131 0 122 0 c 2
 70 0 l 1
 70 728 l 1
EndSplineSet
EndChar

StartChar: NameMe.66774
Encoding: 257 -1 21
Width: 551
VWidth: 988
Flags: W
HStem: 0 21G<70 126.5> 480 20G<70 158 422 487>
VStem: 70 88<144.421 500> 398 89<-169 357.625>
LayerCount: 2
Fore
SplineSet
70 500 m 1
 158 500 l 1
 158 192 l 2
 158 185 157 177 157 169 c 0
 157 161 157 153 156 144 c 1
 400 484 l 2
 402 486 404 489 407 492 c 0
 409 494 412 496 414 497 c 0
 416 498 420 500 424 500 c 0
 428 500 433 500 437 500 c 2
 487 500 l 1
 487 -169 l 1
 398 -169 l 1
 398 312 l 2
 398 319 399 326 399 334 c 0
 399 342 399 350 400 358 c 1
 156 17 l 2
 154 14 149 10 141 4 c 0
 137 1 131 0 122 0 c 2
 70 0 l 1
 70 500 l 1
EndSplineSet
EndChar

StartChar: NameMe.66777
Encoding: 258 -1 22
Width: 415
VWidth: 988
Flags: W
HStem: 0 21G<101 125.5 298.5 357> 480 20G<269 357>
VStem: 70 88<64 728> 269 88<109.359 500> 281 76<0.0703125 72>
LayerCount: 2
Fore
SplineSet
158 64 m 1xe8
 175 67 192 73 207 81 c 0
 230 93 250 110 269 132 c 1
 269 500 l 1
 357 500 l 1xf0
 357 0 l 1
 305 0 l 2
 292 0 284 6 281 18 c 1
 274 72 l 1
 252 48 228 29 201 16 c 0
 174 3 143 -3 108 -3 c 0
 94 -3 82 -2 70 -0 c 1
 70 32 70 32 70 728 c 1
 158 728 l 1
 158 64 l 1xe8
EndSplineSet
EndChar

StartChar: NameMe.66775
Encoding: 259 -1 23
Width: 415
VWidth: 988
Flags: W
HStem: 0 21G<70 150.5> 480 20G<272 357>
VStem: 70 88<76 728> 272 85<126.563 500>
LayerCount: 2
Fore
SplineSet
158 76 m 17
 234 89 272 132 272 204 c 10
 272 500 l 1
 357 500 l 1
 357 202 l 2
 357 141 335 92 292 56 c 0
 248 19 188 0 113 0 c 2
 70 0 l 1
 70 728 l 1
 158 728 l 1
 158 76 l 17
EndSplineSet
EndChar

StartChar: NameMe.66778
Encoding: 260 -1 24
Width: 415
VWidth: 988
Flags: W
HStem: 0 21G<70 158> 480 20G<70 128.5 301.5 326>
VStem: 70 88<0 391.641> 70 76<428 499.93> 269 88<-169 436>
LayerCount: 2
Fore
SplineSet
269 436 m 1xd8
 252 433 235 428 220 420 c 0
 197 408 177 391 158 369 c 1
 158 0 l 1
 70 0 l 1xe8
 70 500 l 1
 122 500 l 2
 135 500 143 494 146 482 c 1
 153 428 l 1
 175 452 199 471 226 484 c 0
 253 497 284 504 319 504 c 0
 333 504 345 503 357 501 c 1
 357 498 357 498 357 -169 c 1
 269 -169 l 1
 269 436 l 1xd8
EndSplineSet
EndChar

StartChar: NameMe.66776
Encoding: 261 -1 25
Width: 415
VWidth: 988
Flags: W
HStem: 0 21G<70 155> 480 20G<276.5 357>
VStem: 70 85<0 372.088> 269 88<-169 424>
LayerCount: 2
Fore
SplineSet
269 424 m 17
 193 411 155 368 155 296 c 10
 155 0 l 1
 70 0 l 1
 70 299 l 2
 70 360 92 409 135 445 c 0
 179 482 239 500 314 500 c 2
 357 500 l 1
 357 -169 l 1
 269 -169 l 1
 269 424 l 17
EndSplineSet
EndChar

StartChar: NameMe.66779
Encoding: 262 -1 26
Width: 550
VWidth: 988
Flags: W
HStem: 0 78<158 275.633> 480 20G<70 158 398 487>
VStem: 70 88<78 500> 398 89<178.004 500> 409 78<0.287109 140>
LayerCount: 2
Fore
SplineSet
403 140 m 1xe8
 356 47 272 0 150 0 c 0
 110 0 110 0 70 0 c 1
 70 77 l 2
 70 466 l 0
 70 500 l 1
 158 500 l 0
 158 78 l 0
 162 78 l 2
 267 78 338 111 377 178 c 0
 385 191 392 207 398 224 c 1
 398 500 l 1
 487 500 l 1xf0
 487 0 l 1
 436 0 l 2
 419 0 410 8 409 24 c 2
 403 140 l 1xe8
EndSplineSet
EndChar

StartChar: NameMe.66780
Encoding: 263 -1 27
Width: 550
VWidth: 988
Flags: W
HStem: 0 77<158 218.839> 480 20G<70 158 403.5 487>
VStem: 70 88<77 500> 398 89<0 359>
LayerCount: 2
Fore
SplineSet
487 500 m 1
 487 0 l 1
 443 0 442 0 398 0 c 1
 398 282 l 2
 398 316 399 338 400 347 c 0
 401 351 402 355 402 359 c 257
 369 120 281 0 139 0 c 2
 70 0 l 1
 70 500 l 1
 158 500 l 1
 158 77 l 1
 258 77 334 213 384 483 c 0
 386 495 395 500 412 500 c 2
 487 500 l 1
EndSplineSet
EndChar

StartChar: NameMe.66781
Encoding: 264 -1 28
Width: 359
VWidth: 988
Flags: W
HStem: 0 21G<70 158> 423 86<222.581 345.904>
VStem: 70 88<0 362.216 401 728>
LayerCount: 2
Fore
SplineSet
158 728 m 5
 158 460 l 4
 158 401 l 5
 173 435 191 461 213 480 c 4
 235 499 262 509 295 509 c 4
 306 509 316 508 326 506 c 4
 336 504 344 501 352 496 c 5
 346 430 l 5
 344 421 339 417 331 417 c 4
 326 417 319 418 310 420 c 4
 301 422 292 423 281 423 c 4
 265 423 250 421 238 416 c 4
 226 411 215 404 205 395 c 4
 195 386 187 374 179 361 c 4
 171 348 165 332 158 315 c 5
 158 0 l 5
 100 0 l 4
 70 0 l 5
 70 728 l 5
 158 728 l 5
EndSplineSet
EndChar

StartChar: NameMe.66782
Encoding: 265 -1 29
Width: 359
VWidth: 988
Flags: W
HStem: -7 87<26.0967 149.419> 480 20G<214 302>
VStem: 214 88<-169 101 139.784 500>
LayerCount: 2
Fore
SplineSet
214 -169 m 1
 214 42 l 0
 214 101 l 1
 199 67 181 41 159 22 c 0
 137 3 110 -7 77 -7 c 0
 66 -7 56 -5 46 -3 c 0
 36 -1 28 2 20 7 c 1
 26 73 l 1
 28 82 34 85 42 85 c 0
 47 85 53 85 62 83 c 0
 71 81 80 80 91 80 c 0
 107 80 122 82 134 87 c 0
 146 92 157 98 167 107 c 0
 177 116 185 128 193 141 c 0
 201 154 207 170 214 187 c 1
 214 500 l 1
 272 500 l 0
 302 500 l 1
 302 -169 l 1
 214 -169 l 1
EndSplineSet
EndChar

StartChar: NameMe.66783
Encoding: 266 -1 30
Width: 471
VWidth: 988
Flags: W
HStem: -174 68<223.104 376.686> 440 68<226.167 378.785>
VStem: 56 90<-1.39722 336.01>
LayerCount: 2
Fore
SplineSet
432 412 m 2
 429 408 427 405 424 403 c 0
 421 401 419 400 414 400 c 0
 409 400 403 402 397 406 c 0
 391 410 384 415 376 420 c 0
 368 425 357 430 345 434 c 0
 333 438 319 440 302 440 c 0
 276 440 253 435 234 424 c 0
 215 413 198 397 185 375 c 0
 172 353 162 324 156 290 c 0
 150 256 146 214 146 167 c 0
 146 117 150 75 157 40 c 0
 164 5 174 -23 187 -45 c 0
 200 -67 217 -82 236 -92 c 0
 255 -102 277 -106 302 -106 c 0
 321 -106 336 -104 349 -99 c 0
 362 -94 371 -88 380 -82 c 0
 389 -76 396 -69 402 -64 c 0
 408 -59 414 -57 420 -57 c 0
 424 -57 427 -58 430 -59 c 0
 433 -60 435 -62 437 -65 c 2
 461 -97 l 1
 450 -111 439 -122 425 -132 c 0
 411 -142 396 -150 381 -156 c 0
 366 -162 350 -167 334 -170 c 0
 318 -173 302 -174 287 -174 c 0
 253 -174 221 -168 193 -156 c 0
 165 -144 141 -124 121 -97 c 0
 101 -70 84 -35 73 7 c 0
 62 49 56 101 56 162 c 0
 56 276 76 361 117 420 c 0
 158 479 217 508 294 508 c 0
 328 508 358 502 385 491 c 0
 412 480 435 464 456 443 c 1
 432 412 l 2
EndSplineSet
EndChar

StartChar: NameMe.66784
Encoding: 267 -1 31
Width: 446
VWidth: 988
Flags: W
HStem: -179 67<166.628 313.656> 432 68<29 293>
VStem: 30 75<-50.9284 116.254>
LayerCount: 2
Fore
SplineSet
293 432 m 1
 29 432 l 1
 29 500 l 1
 406 500 l 1
 406 464 l 2
 406 460 405 455 403 449 c 0
 401 442 398 436 394 432 c 2
 166 173 l 2
 125 126 105 80 105 35 c 3
 105 -14 119 -50 146 -75 c 0
 174 -100 205 -112 241 -112 c 3
 277 -112 313 -96 351 -64 c 1
 366 -52 379 -54 390 -69 c 2
 411 -97 l 1
 362 -152 303 -179 234 -179 c 0
 177 -179 130 -161 91 -126 c 0
 50 -89 30 -41 30 19 c 3
 30 91 56 157 107 217 c 2
 293 432 l 1
EndSplineSet
EndChar

StartChar: py
Encoding: 20 60800 32
Width: 561
GlyphClass: 2
Flags: W
HStem: -14 23<229.921 317.388> 494 21<315 362.265> 506 20G<473.667 481> 751 21<4 51.2656>
VStem: 80 90<39.3104 728.822> 391 90<110.534 471.822>
AnchorPoint: "Bottom" 271 0 basechar 0
AnchorPoint: "Top" 422 701 basechar 0
LayerCount: 2
Back
SplineSet
170 783 m 5
 170 409 l 5
 187.333007812 454.333007812 211.5 485.666992188 242.5 503 c 4
 273.5 520.333007812 306 529 340 529 c 4
 365.333007812 529 386.5 525.666992188 403.5 519 c 4
 420.5 512.333007812 434.666992188 503 446 491 c 4
 458.666992188 477.666992188 467.666992188 461 473 441 c 4
 478.333007812 421 481 394 481 360 c 6
 481 93 l 6
 481 65 486.833007812 46 498.5 36 c 4
 510.166992188 26 529.666992188 21 557 21 c 5
 557 0 l 5
 545.666992188 0.6669921875 528.333007812 1.5 505 2.5 c 4
 481.666992188 3.5 459 4 437 4 c 260
 415 4 393.5 3.5 372.5 2.5 c 4
 351.5 1.5 335.666992188 0.6669921875 325 0 c 5
 325 21 l 5
 349 21 366 26 376 36 c 4
 386 46 391 65 391 93 c 6
 391 382 l 6
 391 402.666992188 389.333007812 421.666992188 386 439 c 4
 382.666992188 456.333007812 375.166992188 470.333007812 363.5 481 c 4
 351.833007812 491.666992188 334 497 310 497 c 4
 269.333007812 497 235.833007812 480.166992188 209.5 446.5 c 4
 183.166992188 412.833007812 170 369.333007812 170 316 c 6
 170 93 l 6
 170 65 175 46 185 36 c 4
 195 26 212 21 236 21 c 5
 236 0 l 5
 225.333007812 0.6669921875 209.5 1.5 188.5 2.5 c 4
 167.5 3.5 146 4 124 4 c 260
 102 4 79.3330078125 3.5 56 2.5 c 4
 32.6669921875 1.5 15.3330078125 0.6669921875 4 0 c 5
 4 21 l 5
 31.3330078125 21 50.8330078125 26 62.5 36 c 4
 74.1669921875 46 80 65 80 93 c 6
 80 663 l 6
 80 693 74.6669921875 715.166992188 64 729.5 c 4
 53.3330078125 743.833007812 33.3330078125 751 4 751 c 5
 4 772 l 5
 25.3330078125 770 46 769 66 769 c 4
 85.3330078125 769 103.833007812 770.166992188 121.5 772.5 c 4
 139.166992188 774.833007812 155.333007812 778.333007812 170 783 c 5
EndSplineSet
Fore
SplineSet
481 526 m 1xbc
 481 526 481 348.333007812 481 257 c 0
 481 197 477.833007812 146.833007812 457.5 106.5 c 0
 428.61866681 49.2103433043 380 -14 287 -14 c 0
 253.666992188 -14 227.5 -4.5 196.5 14.5 c 0
 183.135623209 22.6910696461 171.227109868 32.5858092861 160.774459976 44.1842189202 c 1
 155.0861957 39.3593683294 149.328042374 34.4646286893 143.5 29.5 c 0
 134.5 21.8333333333 125.666666667 14.3333333333 117 7 c 0
 108.333333333 -0.333333333333 99.3333333333 -8 90 -16 c 1
 73 -9 l 1
 75.6666666667 0.333333333333 77.5 9.83333333333 78.5 19.5 c 0
 79.5 29.1666666667 80 39 80 49 c 2
 80 663 l 2
 80 693 74.6666666667 715.166666667 64 729.5 c 0
 53.3333333333 743.833333333 33.3333333333 751 4 751 c 1
 4 772 l 1
 25.3333333333 770 46 769 66 769 c 0
 85.3333333333 769 103.833333333 770.166666667 121.5 772.5 c 0
 139.166666667 774.833333333 155.333333333 778.333333333 170 783 c 1
 170 58.1383739679 l 1
 181.645360859 45.9447407797 194.645360859 36.0652827904 209 28.5 c 0
 233.666666667 15.5 253 9 279 9 c 0
 366.760742188 9 391 147.207217111 391 257 c 0
 391 311 391 406 391 406 c 2
 391 436 385.666992188 458.166992188 375 472.5 c 0
 364.333007812 486.833007812 344.333007812 494 315 494 c 1
 315 515 l 1xdc
 336.333007812 513 357 512 377 512 c 0
 396.333007812 512 414.833007812 513.166992188 432.5 515.5 c 0
 450.166992188 517.833007812 466.333007812 521.333007812 481 526 c 1xbc
EndSplineSet
EndChar

StartChar: ty
Encoding: 21 60801 33
Width: 588
GlyphClass: 2
Flags: W
HStem: 0 21<20 71.7902 206.777 252 341 386.223 521.21 573> 497 32<279.522 378.739> 751 21<20 67.2656>
VStem: 96 90<36.4753 728.822> 407 90<36.4753 473.849>
AnchorPoint: "Top" 358 701 basechar 0
AnchorPoint: "Bottom" 277 0 basechar 0
LayerCount: 2
Fore
SplineSet
186 783 m 1
 186 409 l 1
 203.333333333 454.333333333 227.5 485.666666667 258.5 503 c 0
 289.5 520.333333333 322 529 356 529 c 0
 381.333333333 529 402.5 525.666666667 419.5 519 c 0
 436.5 512.333333333 450.666666667 503 462 491 c 0
 474.666666667 477.666666667 483.666666667 461 489 441 c 0
 494.333333333 421 497 394 497 360 c 2
 497 93 l 2
 497 65 502.833333333 46 514.5 36 c 0
 526.166666667 26 545.666666667 21 573 21 c 1
 573 0 l 1
 561.666666667 0.666666666667 544.333333333 1.5 521 2.5 c 0
 497.666666667 3.5 475 4 453 4 c 256
 431 4 409.5 3.5 388.5 2.5 c 0
 367.5 1.5 351.666666667 0.666666666667 341 0 c 1
 341 21 l 1
 365 21 382 26 392 36 c 0
 402 46 407 65 407 93 c 2
 407 382 l 2
 407 402.666666667 405.333333333 421.666666667 402 439 c 0
 398.666666667 456.333333333 391.166666667 470.333333333 379.5 481 c 0
 367.833333333 491.666666667 350 497 326 497 c 0
 285.333333333 497 251.833333333 480.166666667 225.5 446.5 c 0
 199.166666667 412.833333333 186 369.333333333 186 316 c 2
 186 93 l 2
 186 65 191 46 201 36 c 0
 211 26 228 21 252 21 c 1
 252 0 l 1
 241.333333333 0.666666666667 225.5 1.5 204.5 2.5 c 0
 183.5 3.5 162 4 140 4 c 256
 118 4 95.3333333333 3.5 72 2.5 c 0
 48.6666666667 1.5 31.3333333333 0.666666666667 20 0 c 1
 20 21 l 1
 47.3333333333 21 66.8333333333 26 78.5 36 c 0
 90.1666666667 46 96 65 96 93 c 2
 96 663 l 2
 96 693 90.6666666667 715.166666667 80 729.5 c 0
 69.3333333333 743.833333333 49.3333333333 751 20 751 c 1
 20 772 l 1
 41.3333333333 770 62 769 82 769 c 0
 101.333333333 769 119.833333333 770.166666667 137.5 772.5 c 0
 155.166666667 774.833333333 171.333333333 778.333333333 186 783 c 1
EndSplineSet
EndChar

StartChar: ky
Encoding: 22 60802 34
Width: 626
GlyphClass: 2
Flags: W
HStem: 0 21<29 80.7902 215.777 261 365 410.223 545.21 597> 493 21<365 410.223 545.21 597> 751 21<29 76.2654>
VStem: 105 90<104.967 728.822> 431 90<36.4753 397.073 429.965 477.525>
AnchorPoint: "Top" 479 701 basechar 0
AnchorPoint: "Bottom" 312 0 basechar 0
LayerCount: 2
Fore
SplineSet
597 514 m 1
 597 493 l 1
 569.666666667 493 550.166666667 488 538.5 478 c 0
 526.833333333 468 521 449 521 421 c 2
 521 93 l 2
 521 65 526.833333333 46 538.5 36 c 0
 550.166666667 26 569.666666667 21 597 21 c 1
 597 0 l 1
 585.666666667 0.666666666667 568.333333333 1.5 545 2.5 c 0
 521.666666667 3.5 499 4 477 4 c 0
 455 4 433.5 3.5 412.5 2.5 c 0
 391.5 1.5 375.666666667 0.666666666667 365 0 c 1
 365 21 l 1
 389 21 406 26 416 36 c 0
 426 46 431 65 431 93 c 2
 431 397.072727273 l 1
 196.074858518 72.4488954067 l 1
 198.035173069 55.4727449063 202.676886896 43.3231131041 210 36 c 0
 220 26 237 21 261 21 c 1
 261 0 l 1
 250.333333333 0.666666666667 234.5 1.5 213.5 2.5 c 0
 192.5 3.5 171 4 149 4 c 0
 127 4 104.333333333 3.5 81 2.5 c 0
 57.6666666667 1.5 40.3333333333 0.666666666667 29 0 c 1
 29 21 l 1
 56.3333333333 21 75.8333333333 26 87.5 36 c 0
 99.1666666667 46 105 65 105 93 c 2
 105 663 l 2
 105 693 99.6669921875 715.166992188 89 729.5 c 0
 78.3330078125 743.833007812 58.3330078125 751 29 751 c 1
 29 772 l 1
 50.3330078125 770 71 769 91 769 c 0
 110.333007812 769 128.833007812 770.166992188 146.5 772.5 c 0
 164.166992188 774.833007812 180.333007812 778.333007812 195 783 c 1
 195 104.967272727 l 1
 430.816306491 429.965018764 l 1
 429.832141797 453.094966621 424.893372967 469.106627033 416 478 c 0
 406 488 389 493 365 493 c 1
 365 514 l 1
 375.666666667 513.333333333 391.5 512.5 412.5 511.5 c 0
 433.5 510.5 455 510 477 510 c 0
 499 510 521.666666667 510.5 545 511.5 c 0
 568.333333333 512.5 585.666666667 513.333333333 597 514 c 1
EndSplineSet
EndChar

StartChar: fy
Encoding: 23 60803 35
Width: 476
VWidth: 988
GlyphClass: 2
Flags: W
HStem: 0 15<150 309.01> 483 21<119 166.265> 495 20G<277.667 285>
VStem: 195 90<275.405 460.822> 399 23<109.565 176>
AnchorPoint: "Top" 233 701 basechar 0
AnchorPoint: "Bottom" 228 0 basechar 0
LayerCount: 2
Back
SplineSet
285 515 m 1xb0
 285 82 l 2
 285 54 290.833007812 35 302.5 25 c 0
 314.166992188 15 333.666992188 10 361 10 c 1
 361 -11 l 1
 349.666992188 -10.3330078125 332.5 -9.5 309.5 -8.5 c 0
 286.5 -7.5 263.333007812 -7 240 -7 c 0
 217.333007812 -7 194.333007812 -7.5 171 -8.5 c 0
 147.666992188 -9.5 130.333007812 -10.3330078125 119 -11 c 1
 119 10 l 1
 146.333007812 10 165.833007812 15 177.5 25 c 0
 189.166992188 35 195 54 195 82 c 2
 195 395 l 2
 195 425 189.666992188 447.166992188 179 461.5 c 0
 168.333007812 475.833007812 148.333007812 483 119 483 c 1
 119 504 l 1xd0
 140.333007812 502 161 501 181 501 c 0
 200.333007812 501 218.833007812 502.166992188 236.5 504.5 c 0
 254.166992188 506.833007812 270.333007812 510.333007812 285 515 c 1xb0
439 520 m 1
 150 15 l 1
 260 15 l 2
 286.666666667 15 309.833333333 20.3333333333 329.5 31 c 128
 349.166666667 41.6666666667 365 58.8333333333 377 82.5 c 128
 389 106.166666667 396.333333333 137.333333333 399 176 c 1
 422 176 l 1
 422 133.333333333 422.333333333 97.3333333333 423 68 c 128
 423.666666667 38.6666666667 424.666666667 14.6666666667 426 -4 c 1
 396.666666667 -2.66666666667 366.166666667 -1.66666666667 334.5 -1 c 128
 302.833333333 -0.333333333333 271.333333333 0 240 0 c 0
 206.666666667 0 172.666666667 -0.5 138 -1.5 c 128
 103.333333333 -2.5 70 -3.66666666667 38 -5 c 1
 327 500 l 1
 217 500 l 2
 187.666666667 500 163.166666667 494.666666667 143.5 484 c 128
 123.833333333 473.333333333 108.833333333 456.166666667 98.5 432.5 c 128
 88.1666666667 408.833333333 81.3333333333 377.666666667 78 339 c 1
 55 339 l 1
 55 382.333333333 54.6666666667 418.5 54 447.5 c 128
 53.3333333333 476.5 52.3333333333 500.333333333 51 519 c 1
 80.3333333333 517.666666667 110.833333333 516.666666667 142.5 516 c 128
 174.166666667 515.333333333 205.666666667 515 237 515 c 0
 270.333333333 515 304.333333333 515.5 339 516.5 c 128
 373.666666667 517.5 407 518.666666667 439 520 c 1
EndSplineSet
Fore
SplineSet
195 395 m 3xb8
 195 425 189.666992188 447.166992188 179 461.5 c 0
 168.333007812 475.833007812 148.333007812 483 119 483 c 1
 119 504 l 1xd8
 140.333007812 502 161 501 181 501 c 0
 200.333007812 501 218.833007812 502.166992188 236.5 504.5 c 0
 254.166992188 506.833007812 270.333007812 510.333007812 285 515 c 1
 285 180 186 80 150 15 c 1
 260 15 l 2
 286.666666667 15 309.833333333 20.3333333333 329.5 31 c 0
 349.166666667 41.6666666667 365 58.8333333333 377 82.5 c 0
 389 106.166666667 396.333333333 137.333333333 399 176 c 1
 422 176 l 1
 422 133.333333333 422.333333333 97.3333333333 423 68 c 0
 423.666666667 38.6666666667 424.666666667 14.6666666667 426 -4 c 1
 396.666666667 -2.66666666667 366.166666667 -1.66666666667 334.5 -1 c 0
 302.833333333 -0.333333333333 271.333333333 0 240 0 c 0
 206.666666667 0 172.666666667 -0.5 138 -1.5 c 0
 103.333333333 -2.5 70 -3.66666666667 38 -5 c 1
 92 102 195 223.997076048 195 395 c 3xb8
EndSplineSet
EndChar

StartChar: ly
Encoding: 24 60804 36
Width: 486
GlyphClass: 2
Flags: W
HStem: -14 43<218.072 358.251> 511 18<243.482 333.364>
VStem: 46 97<127.157 377.235> 334 108<378.956 459.432>
AnchorPoint: "Top" 263 701 basechar 0
AnchorPoint: "Bottom" 263 0 basechar 0
LayerCount: 2
Fore
SplineSet
279 529 m 0
 300.333333333 529 321 526.333333333 341 521 c 0
 361 515.666666667 379 507.666666667 395 497 c 0
 410.333333333 487 422 475.5 430 462.5 c 0
 438 449.5 442 435.333333333 442 420 c 0
 442 402 437 388.166666667 427 378.5 c 0
 417 368.833333333 404.333333333 364 389 364 c 0
 374.333333333 364 361.5 368.333333333 350.5 377 c 0
 339.5 385.666666667 334 398 334 414 c 0
 334 429.333333333 338.166666667 441.666666667 346.5 451 c 0
 354.833333333 460.333333333 364.666666667 466.333333333 376 469 c 1
 369.333333333 481 357.5 491 340.5 499 c 0
 323.5 507 305.333333333 511 286 511 c 0
 269.333333333 511 252.666666667 507 236 499 c 0
 219.333333333 491 204 477.833333333 190 459.5 c 0
 176 441.166666667 164.666666667 416.166666667 156 384.5 c 0
 147.333333333 352.833333333 143 313.333333333 143 266 c 0
 143 207.333333333 149.666666667 160.666666667 163 126 c 0
 176.333333333 91.3333333333 193.833333333 66.5 215.5 51.5 c 0
 237.166666667 36.5 261 29 287 29 c 256
 313 29 339.333333333 36.6666666667 366 52 c 0
 392.666666667 67.3333333333 414.666666667 94 432 132 c 1
 451 125 l 1
 444.333333333 103.666666667 433.333333333 82.1666666667 418 60.5 c 0
 402.666666667 38.8333333333 382.666666667 21 358 7 c 0
 333.333333333 -7 303 -14 267 -14 c 0
 225.666666667 -14 188.333333333 -3.33333333333 155 18 c 0
 121.666666667 39.3333333333 95.1666666667 69.8333333333 75.5 109.5 c 0
 55.8333333333 149.166666667 46 196.333333333 46 251 c 256
 46 305.666666667 55.8333333333 353.833333333 75.5 395.5 c 0
 95.1666666667 437.166666667 122.666666667 469.833333333 158 493.5 c 0
 193.333333333 517.166666667 233.666666667 529 279 529 c 0
EndSplineSet
EndChar

StartChar: sy
Encoding: 25 60805 37
Width: 581
GlyphClass: 2
Flags: W
HStem: -14 30<223.191 324.218> 0 21<513.4 560> 506 23<235.615 335.876> 752 21<318 365.266>
VStem: 48 97<113.621 386.802> 394 90<43.1776 468.569 471.185 729.822>
AnchorPoint: "Top" 189 701 basechar 0
AnchorPoint: "Bottom" 276 0 basechar 0
LayerCount: 2
Fore
SplineSet
274 529 m 0xbc
 303.333333333 529 330.833333333 522 356.5 508 c 0
 372.167044171 499.454339543 384.667044171 487.182744768 394 471.185215674 c 1
 394 664 l 2
 394 694 388.666666667 716.166666667 378 730.5 c 0
 367.333333333 744.833333333 347.333333333 752 318 752 c 1
 318 773 l 1
 339.333333333 771 360 770 380 770 c 0
 399.333333333 770 417.833333333 771.166666667 435.5 773.5 c 0
 453.166666667 775.833333333 469.333333333 779.333333333 484 784 c 1
 484 109 l 2
 484 79 489.5 56.8333333333 500.5 42.5 c 0
 511.5 28.1666666667 531.333333333 21 560 21 c 1
 560 0 l 1
 539.333333333 2 518.666666667 3 498 3 c 0
 478.666666667 3 460.166666667 2 442.5 0 c 0x7c
 424.833333333 -2 408.666666667 -5.66666666667 394 -11 c 1
 394 77.0523022868 l 1
 385.903041562 57.4213362528 375.069708228 40.7372354906 361.5 27 c 0
 334.5 -0.333333333333 298 -14 252 -14 c 0
 210.666666667 -14 174.5 -4 143.5 16 c 0
 112.5 36 88.8333333333 66 72.5 106 c 0
 56.1666666667 146 48 196.333333333 48 257 c 0
 48 317.666666667 58.5 368.166666667 79.5 408.5 c 0
 100.5 448.833333333 128.166666667 479 162.5 499 c 0
 196.833333333 519 234 529 274 529 c 0xbc
394 428.91469306 m 1
 384.644315381 455.415338627 370.477648715 474.777107607 351.5 487 c 0
 331.833333333 499.666666667 308.666666667 506 282 506 c 0
 242.666666667 506 209.833333333 485.666666667 183.5 445 c 0
 157.166666667 404.333333333 144.333333333 341.666666667 145 257 c 0
 145 203 150.166666667 158.166666667 160.5 122.5 c 0
 170.833333333 86.8333333333 186.166666667 60.1666666667 206.5 42.5 c 0
 226.833333333 24.8333333333 251.666666667 16 281 16 c 0xbc
 309 16 334.333333333 28 357 52 c 0
 375.024227681 71.0844763679 387.357561014 97.3352641362 394 130.752363305 c 1
 394 428.91469306 l 1
EndSplineSet
EndChar

StartChar: cy
Encoding: 26 60806 38
Width: 597
GlyphClass: 2
Flags: W
HStem: 0 21<29 80.7902 215.777 261 350 395.223 530.21 582> 494 21<29 76.2656> 497 32<289.532 387.919> 522 21G<408.406 416> 752 21<340 387.266>
VStem: 105 90<36.4753 93 315 471.822> 416 90<36.4753 93 382 475.205 664 729.822>
AnchorPoint: "Top" 147.103 701 basechar 0
AnchorPoint: "Bottom" 283 0 basechar 0
LayerCount: 2
Back
SplineSet
296 529 m 4xbc
 325.333333333 529 352.833333333 522 378.5 508 c 4
 394.167044171 499.454416423 406.667044171 487.182932048 416 471.185546875 c 5
 416 664 l 6
 416 694 410.666666667 716.166666667 400 730.5 c 4
 389.333333333 744.833333333 369.333333333 752 340 752 c 5
 340 773 l 5
 361.333333333 771 382 770 402 770 c 4
 421.333333333 770 439.833333333 771.166666667 457.5 773.5 c 4
 475.166666667 775.833333333 491.333333333 779.333333333 506 784 c 5
 506 109 l 2
 506 79 511.5 56.8333333333 522.5 42.5 c 0
 533.5 28.1666666667 553.333333333 21 582 21 c 1
 582 0 l 1
 561.333333333 2 540.666666667 3 520 3 c 0
 500.666666667 3 482.166666667 2 464.5 0 c 0x7c
 446.833333333 -2 430.666666667 -5.66666666667 416 -11 c 1
 416 77.052734375 l 1
 407.903041562 57.4215988721 397.069708228 40.7373540805 383.5 27 c 0
 356.5 -0.333333333333 320 -14 274 -14 c 0
 232.666666667 -14 196.5 -4 165.5 16 c 0
 134.5 36 110.833333333 66 94.5 106 c 0
 78.1666666667 146 70 196.333333333 70 257 c 0
 70 317.666666667 80.5 368.166666667 101.5 408.5 c 0
 122.5 448.833333333 150.166666667 479 184.5 499 c 0
 218.833333333 519 256 529 296 529 c 4xbc
416 428.915039062 m 5
 406.644315381 455.415526771 392.477648715 474.777180417 373.5 487 c 4
 353.833333333 499.666666667 330.666666667 506 304 506 c 4
 264.666666667 506 231.833333333 485.666666667 205.5 445 c 0
 179.166666667 404.333333333 166.333333333 341.666666667 167 257 c 0
 167 203 172.166666667 158.166666667 182.5 122.5 c 0
 192.833333333 86.8333333333 208.166666667 60.1666666667 228.5 42.5 c 0
 248.833333333 24.8333333333 273.666666667 16 303 16 c 0xbc
 331 16 356.333333333 28 379 52 c 0
 397.024227681 71.0843769668 409.357561014 97.3350280084 416 130.751953125 c 1
 416 428.915039062 l 5
EndSplineSet
Fore
SplineSet
416 522 m 1x9e
 400.8125 526.499023438 385.812145525 529 365 529 c 0xae
 331 529 298.5 520.166666667 267.5 502.5 c 0
 236.5 484.833333333 212.333333333 453.333333333 195 408 c 1
 195 526 l 1
 180.333333333 521.333333333 164.166666667 517.833333333 146.5 515.5 c 0
 128.833333333 513.166666667 110.333333333 512 91 512 c 0
 71 512 50.3333333333 513 29 515 c 1
 29 494 l 1xce
 58.3333333333 494 78.3333333333 486.833333333 89 472.5 c 0
 99.6666666667 458.166666667 105 436 105 406 c 2
 105 93 l 2
 105 65 99.1666666667 46 87.5 36 c 0
 75.8333333333 26 56.3333333333 21 29 21 c 1
 29 0 l 1
 40.3333333333 0.666666666667 57.6666666667 1.5 81 2.5 c 0
 104.333333333 3.5 127 4 149 4 c 256
 171 4 192.5 3.5 213.5 2.5 c 0
 234.5 1.5 250.333333333 0.666666666667 261 0 c 1
 261 21 l 1
 237 21 220 26 210 36 c 0
 200 46 195 65 195 93 c 2
 195 315 l 2
 195 366.333333333 207.833333333 409.5 233.5 444.5 c 0
 259.166666667 479.5 293 497 335 497 c 0xae
 359 497 376.833333333 491.666666667 388.5 481 c 0
 400.166666667 470.333333333 407.666666667 456.333333333 411 439 c 0
 414.333333333 421.666666667 416 402.666666667 416 382 c 2
 416 93 l 2
 416 65 411 46 401 36 c 0
 391 26 374 21 350 21 c 1
 350 0 l 1
 360.666666667 0.666666666667 376.5 1.5 397.5 2.5 c 0
 418.5 3.5 440 4 462 4 c 256
 484 4 506.666666667 3.5 530 2.5 c 0
 553.333333333 1.5 570.666666667 0.666666666667 582 0 c 1
 582 21 l 1
 554.666666667 21 535.166666667 26 523.5 36 c 0
 511.833333333 46 506 65 506 93 c 2
 506 360 l 2
 506 394 506 784 506 784 c 1
 491.333333333 779.333333333 475.166666667 775.833333333 457.5 773.5 c 0
 439.833333333 771.166666667 421.333333333 770 402 770 c 0
 382 770 361.333333333 771 340 773 c 1
 340 752 l 1
 369.333333333 752 389.333333333 744.833333333 400 730.5 c 0
 410.666666667 716.166666667 416 694.010707172 416 664 c 2
 416 522 l 1x9e
419 522.250850741 m 1025
EndSplineSet
EndChar

StartChar: my
Encoding: 27 60807 39
Width: 446
VWidth: 988
GlyphClass: 2
Flags: HW
HStem: 0 15<150 309.082> 509 20<172.937 279.4>
VStem: 62 113<377.079 460.5> 320 90<326.449 467.446> 399 23<109.565 176>
AnchorPoint: "Top" 237 701 basechar 0
AnchorPoint: "Bottom" 226 0 basechar 0
LayerCount: 2
Back
SplineSet
163 -7 m 4
 119.666666667 -7 88.1666666667 3.83333333333 68.5 25.5 c 132
 48.8333333333 47.1666666667 39 76 39 112 c 4
 39 140 45.8333333333 163.166666667 59.5 181.5 c 132
 73.1666666667 199.833333333 90.6666666667 214.833333333 112 226.5 c 132
 133.333333333 238.166666667 155.833333333 248.166666667 179.5 256.5 c 132
 203.166666667 264.833333333 225.666666667 273 247 281 c 132
 268.333333333 289 285.833333333 298 299.5 308 c 132
 313.166666667 318 320 330.666666667 320 346 c 6
 320 408 l 6
 320 436 315.833333333 457.333333333 307.5 472 c 132
 299.166666667 486.666666667 288 496.5 274 501.5 c 132
 260 506.5 244.333333333 509 227 509 c 4
 210.333333333 509 192.5 506.666666667 173.5 502 c 132
 154.5 497.333333333 139.333333333 487.666666667 128 473 c 5
 140.666666667 470.333333333 151.666666667 463.666666667 161 453 c 132
 170.333333333 442.333333333 175 428.666666667 175 412 c 260
 175 395.333333333 169.666666667 382.166666667 159 372.5 c 132
 148.333333333 362.833333333 134.666666667 358 118 358 c 4
 98.6666666667 358 84.5 364.166666667 75.5 376.5 c 132
 66.5 388.833333333 62 402.666666667 62 418 c 4
 62 435.333333333 66.3333333333 449.333333333 75 460 c 132
 83.6666666667 470.666666667 94.6666666667 480.666666667 108 490 c 4
 123.333333333 500.666666667 143.166666667 509.833333333 167.5 517.5 c 132
 191.833333333 525.166666667 219.333333333 529 250 529 c 4
 277.333333333 529 300.666666667 525.833333333 320 519.5 c 132
 339.333333333 513.166666667 355.333333333 504 368 492 c 4
 385.333333333 476 396.666666667 456.5 402 433.5 c 132
 407.333333333 410.5 410 383 410 351 c 6
 410 73 l 6
 410 57 412.333333333 45.1666666667 417 37.5 c 132
 421.666666667 29.8333333333 429.666666667 26 441 26 c 4
 450.333333333 26 458.5 28 465.5 32 c 132
 472.5 36 479.333333333 41 486 47 c 5
 497 30 l 5
 483 19.3333333333 469.666666667 10.5 457 3.5 c 132
 444.333333333 -3.5 427.333333333 -7 406 -7 c 4
 371.333333333 -7 348.333333333 2 337 20 c 132
 325.666666667 38 320 58.6666666667 320 82 c 5
 298.666666667 46.6666666667 274.5 23 247.5 11 c 132
 220.5 -1 192.333333333 -7 163 -7 c 4
207 33 m 4
 227 33 246.666666667 38.8333333333 266 50.5 c 132
 285.333333333 62.1666666667 303.333333333 81.6666666667 320 109 c 5
 320 305 l 5
 310 290.333333333 294.5 278.666666667 273.5 270 c 132
 252.5 261.333333333 230.833333333 251.833333333 208.5 241.5 c 132
 186.166666667 231.166666667 167 217.166666667 151 199.5 c 132
 135 181.833333333 127 156.666666667 127 124 c 4
 127 93.3333333333 134.666666667 70.5 150 55.5 c 132
 165.333333333 40.5 184.333333333 33 207 33 c 4
439 520 m 5
 150 15 l 5
 260 15 l 6
 286.666666667 15 309.833333333 20.3333333333 329.5 31 c 132
 349.166666667 41.6666666667 365 58.8333333333 377 82.5 c 132
 389 106.166666667 396.333333333 137.333333333 399 176 c 5
 422 176 l 5
 422 133.333333333 422.333333333 97.3333333333 423 68 c 132
 423.666666667 38.6666666667 424.666666667 14.6666666667 426 -4 c 5
 396.666666667 -2.66666666667 366.166666667 -1.66666666667 334.5 -1 c 132
 302.833333333 -0.333333333333 271.333333333 0 240 0 c 4
 206.666666667 0 172.666666667 -0.5 138 -1.5 c 132
 103.333333333 -2.5 70 -3.66666666667 38 -5 c 5
 327 500 l 5
 217 500 l 6
 187.666666667 500 163.166666667 494.666666667 143.5 484 c 132
 123.833333333 473.333333333 108.833333333 456.166666667 98.5 432.5 c 132
 88.1666666667 408.833333333 81.3333333333 377.666666667 78 339 c 5
 55 339 l 5
 55 382.333333333 54.6666666667 418.5 54 447.5 c 132
 53.3333333333 476.5 52.3333333333 500.333333333 51 519 c 5
 80.3333333333 517.666666667 110.833333333 516.666666667 142.5 516 c 132
 174.166666667 515.333333333 205.666666667 515 237 515 c 4
 270.333333333 515 304.333333333 515.5 339 516.5 c 132
 373.666666667 517.5 407 518.666666667 439 520 c 5
EndSplineSet
Fore
SplineSet
150 15 m 1xf0
 260 15 l 2
 287 15 309.833333333 20.3333333333 329.5 31 c 0
 349.166666667 41.6666666667 365 58.8333333333 377 82.5 c 0
 389 106.166666667 396.333333333 137.333333333 399 176 c 1
 422 176 l 1xe8
 422 133.333333333 422.333333333 97.3333333333 423 68 c 0
 423.666666667 38.6666666667 424.666666667 14.6666666667 426 -4 c 1
 396.666666667 -2.66666666667 366.166666667 -1.66666666667 334.5 -1 c 0
 302.833333333 -0.333333333333 271.333333333 0 240 0 c 0
 206.666666667 0 172.666666667 -0.5 138 -1.5 c 0
 103.333333333 -2.5 38 -5 38 -5 c 1
 209 258 320 240 320 408 c 3
 320 477.64192506 293.155004812 509 227 509 c 0
 185.971655901 509 147.520595486 498.261947101 128 473 c 1
 140.666666667 470.333333333 151.666666667 463.666666667 161 453 c 0
 170.333333333 442.333333333 175 428.666666667 175 412 c 256
 175 395.333333333 169.666666667 382.166666667 159 372.5 c 0
 148.333333333 362.833333333 134.666666667 358 118 358 c 0
 98.6666666667 358 84.5 364.166666667 75.5 376.5 c 0
 66.5 388.833333333 62 402.666666667 62 418 c 0
 62 435.333333333 66.3333333333 449.333333333 75 460 c 0
 83.6666666667 470.666666667 94.6666666667 480.666666667 108 490 c 0
 123.333333333 500.666666667 143.166666667 509.833333333 167.5 517.5 c 0
 191.833333333 525.166666667 219.333333333 529 250 529 c 0
 363.458383511 529 410 476.40625 410 365 c 3
 410 211.997070312 274 196 150 15 c 1xf0
EndSplineSet
EndChar

StartChar: xy
Encoding: 28 60808 40
Width: 548
GlyphClass: 2
Flags: W
HStem: -14 20<231.559 316.697> 509 20<231.559 316.697>
VStem: 47 97<121.354 392.917> 404 97<121.354 392.917>
AnchorPoint: "Top" 278 701 basechar 0
AnchorPoint: "Bottom" 281 0 basechar 0
LayerCount: 2
Fore
SplineSet
274 529 m 0
 316.666666667 529 355 519.666666667 389 501 c 0
 423 482.333333333 450.166666667 453 470.5 413 c 0
 490.833333333 373 501 321 501 257 c 256
 501 193 490.833333333 141.166666667 470.5 101.5 c 0
 450.166666667 61.8333333333 423 32.6666666667 389 14 c 0
 355 -4.66666666667 316.666666667 -14 274 -14 c 0
 232 -14 193.833333333 -4.66666666667 159.5 14 c 0
 125.166666667 32.6666666667 97.8333333333 61.8333333333 77.5 101.5 c 0
 57.1666666667 141.166666667 47 193 47 257 c 256
 47 321 57.1666666667 373 77.5 413 c 0
 97.8333333333 453 125.166666667 482.333333333 159.5 501 c 0
 193.833333333 519.666666667 232 529 274 529 c 0
274 509 m 256
 236 509 204.833333333 489.333333333 180.5 450 c 0
 156.166666667 410.666666667 144 346.333333333 144 257 c 256
 144 167.666666667 156.166666667 103.5 180.5 64.5 c 0
 204.833333333 25.5 236 6 274 6 c 256
 312 6 343.166666667 25.5 367.5 64.5 c 0
 391.833333333 103.5 404 167.666666667 404 257 c 256
 404 346.333333333 391.833333333 410.666666667 367.5 450 c 0
 343.166666667 489.333333333 312 509 274 509 c 256
EndSplineSet
EndChar

StartChar: denpabu
Encoding: 29 60809 41
Width: 264
GlyphClass: 2
Flags: W
HStem: 204 128<84.6992 179.301>
VStem: 68 128<220.699 315.301>
AnchorPoint: "Top" 132 701 basechar 0
AnchorPoint: "Bottom" 132 0 basechar 0
LayerCount: 2
Fore
SplineSet
132 332 m 256
 149.333333333 332 164.333333333 325.666666667 177 313 c 0
 189.666666667 300.333333333 196 285.333333333 196 268 c 256
 196 250.666666667 189.666666667 235.666666667 177 223 c 0
 164.333333333 210.333333333 149.333333333 204 132 204 c 256
 114.666666667 204 99.6666666667 210.333333333 87 223 c 0
 74.3333333333 235.666666667 68 250.666666667 68 268 c 256
 68 285.333333333 74.3333333333 300.333333333 87 313 c 0
 99.6666666667 325.666666667 114.666666667 332 132 332 c 256
EndSplineSet
Substitution2: "Single Substitution lookup 73 subtable" denpabu.cas
EndChar

StartChar: yhy
Encoding: 30 60810 42
Width: 293
GlyphClass: 2
Flags: W
HStem: 0 21<29 80.7902 219.21 271> 494 21<29 76.2656> 506 20G<187.667 195>
VStem: 105 90<36.4753 471.822>
AnchorPoint: "Top" 143 701 basechar 0
AnchorPoint: "Bottom" 119 0 basechar 0
LayerCount: 2
Fore
SplineSet
195 526 m 5xb0
 195 93 l 2
 195 65 200.833333333 46 212.5 36 c 0
 224.166666667 26 243.666666667 21 271 21 c 1
 271 0 l 1
 259.666666667 0.666666666667 242.5 1.5 219.5 2.5 c 0
 196.5 3.5 173.333333333 4 150 4 c 0
 127.333333333 4 104.333333333 3.5 81 2.5 c 0
 57.6666666667 1.5 40.3333333333 0.666666666667 29 0 c 1
 29 21 l 1
 56.3333333333 21 75.8333333333 26 87.5 36 c 0
 99.1666666667 46 105 65 105 93 c 2
 105 406 l 6
 105 436 99.6666666667 458.166666667 89 472.5 c 4
 78.3333333333 486.833333333 58.3333333333 494 29 494 c 5
 29 515 l 5xd0
 50.3333333333 513 71 512 91 512 c 4
 110.333333333 512 128.833333333 513.166666667 146.5 515.5 c 4
 164.166666667 517.833333333 180.333333333 521.333333333 195 526 c 5xb0
EndSplineSet
Substitution2: "Single Substitution lookup 75 subtable" yhy.cas
Substitution2: "Single Substitution lookup 74 subtable" yhy.cas
EndChar

StartChar: cnimahobu
Encoding: 31 60811 43
Width: 218
GlyphClass: 2
Flags: W
HStem: 0 21<307 358.79 497.21 549> 306 87<27.1897 209.657> 480 20G<304 340> 494 21<307 354.266> 506 20G<465.667 473>
VStem: 18 322 383 90<36.4753 471.822>
AnchorPoint: "Top" 132 701 basechar 0
AnchorPoint: "Bottom" 132 0 basechar 0
LayerCount: 2
Back
SplineSet
132 332 m 260
 149.333333333 332 164.333333333 325.666666667 177 313 c 4
 189.666666667 300.333333333 196 285.333333333 196 268 c 260
 196 250.666666667 189.666666667 235.666666667 177 223 c 4
 164.333333333 210.333333333 149.333333333 204 132 204 c 260
 114.666666667 204 99.6666666667 210.333333333 87 223 c 4
 74.3333333333 235.666666667 68 250.666666667 68 268 c 260
 68 285.333333333 74.3333333333 300.333333333 87 313 c 4
 99.6666666667 325.666666667 114.666666667 332 132 332 c 260
EndSplineSet
Fore
Refer: 109 -1 N 1 0 0 1 278 0 2
Refer: 101 -1 N 1 0 0 1 0 0 2
EndChar

StartChar: patonga
Encoding: 32 60812 44
Width: 0
VWidth: 988
GlyphClass: 4
Flags: W
HStem: -204 141
VStem: -359 198
AnchorPoint: "Bottom" -260 0 mark 0
LayerCount: 2
Fore
SplineSet
-161 -63 m 5
 -276 -190 l 6
 -281 -195 -286 -199 -290 -201 c 4
 -294 -203 -300 -204 -307 -204 c 6
 -359 -204 l 5
 -286 -84 l 6
 -281 -76 -276 -71 -271 -68 c 4
 -266 -65 -258 -63 -247 -63 c 6
 -161 -63 l 5
EndSplineSet
EndChar

StartChar: retonga
Encoding: 33 60813 45
Width: 0
VWidth: 988
GlyphClass: 4
Flags: W
HStem: -204 141
VStem: -348 196
AnchorPoint: "Bottom" -250 0 mark 0
LayerCount: 2
Fore
SplineSet
-265 -63 m 6
 -254 -63 -245 -65 -240 -68 c 4
 -235 -71 -231 -76 -226 -84 c 6
 -152 -204 l 5
 -202 -204 l 6
 -209 -204 -215 -203 -219 -201 c 4
 -223 -199 -227 -195 -232 -190 c 6
 -348 -63 l 5
 -265 -63 l 6
EndSplineSet
EndChar

StartChar: citonga
Encoding: 34 60814 46
Width: 0
VWidth: 988
GlyphClass: 4
Flags: W
HStem: -199 130
VStem: -420 302
AnchorPoint: "Bottom" -269 0 mark 0
LayerCount: 2
Fore
SplineSet
-118 -199 m 5
 -177 -199 l 6
 -181 -199 -183 -199 -187 -197 c 4
 -191 -195 -194 -194 -196 -192 c 6
 -260 -125 l 6
 -262 -123 -263 -122 -264 -120 c 4
 -265 -118 -266 -117 -268 -115 c 5
 -270 -117 -271 -118 -272 -120 c 4
 -273 -122 -274 -123 -276 -125 c 6
 -340 -192 l 6
 -342 -194 -344 -195 -348 -197 c 4
 -352 -199 -355 -199 -359 -199 c 6
 -420 -199 l 5
 -310 -69 l 5
 -228 -69 l 5
 -118 -199 l 5
EndSplineSet
EndChar

StartChar: votonga
Encoding: 35 60815 47
Width: 0
VWidth: 988
GlyphClass: 4
Flags: W
HStem: -194 130
VStem: -421 302
AnchorPoint: "Bottom" -270 0 mark 0
LayerCount: 2
Fore
SplineSet
-119 -64 m 1
 -229 -194 l 1
 -311 -194 l 1
 -421 -64 l 1
 -360 -64 l 2
 -356 -64 -353 -64 -349 -66 c 0
 -345 -68 -343 -69 -341 -71 c 2
 -277 -138 l 2
 -275 -140 -274 -141 -273 -143 c 0
 -272 -145 -271 -146 -269 -148 c 1
 -267 -146 -266 -145 -265 -143 c 0
 -264 -141 -263 -140 -261 -138 c 2
 -197 -71 l 2
 -195 -69 -192 -68 -188 -66 c 0
 -184 -64 -182 -64 -178 -64 c 2
 -119 -64 l 1
EndSplineSet
EndChar

StartChar: by
Encoding: 36 60816 48
Width: 563
GlyphClass: 2
Flags: W
HStem: -181 21<297 359.055 501.532 549> 0 21<16 67.79 206.21 258> 506 23<245.576 331.47>
VStem: 92 90<36.4753 418.297> 393 90<-142.889 468.137>
AnchorPoint: "Top" 298 701 basechar 0
AnchorPoint: "Bottom" 137 0 basechar 0
LayerCount: 2
Back
SplineSet
483 -98 m 2xdc
 483 -122 488 -138.333333333 498 -147 c 0
 508 -155.666666667 525 -160 549 -160 c 1
 549 -181 l 1
 538.333333333 -180.333333333 523 -179.5 503 -178.5 c 0
 483 -177.5 462.333333333 -177 441 -177 c 0
 412.333333333 -177 384.833333333 -177.5 358.5 -178.5 c 0
 332.166666667 -179.5 311.666666667 -180.333333333 297 -181 c 1
 297 -160 l 1
 327 -160 350.5 -155.166666667 367.5 -145.5 c 0
 384.5 -135.833333333 393 -116.666666667 393 -88 c 1
 393 106 l 1
 376.333333333 62.6666666667 352.833333333 31.8333333333 322.5 13.5 c 0
 292.166666667 -4.83333333333 261 -14 229 -14 c 0
 205.666666667 -14 185.333333333 -10.6666666667 168 -4 c 0
 150.666666667 2.66666666667 136.333333333 12 125 24 c 0
 112.333333333 37.3333333333 103.666666667 54.6666666667 99 76 c 0
 94.3333333333 97.3333333333 92 123.666666667 92 155 c 2
 92 406 l 2
 92 436 86.6666666667 458.166666667 76 472.5 c 0
 65.3333333333 486.833333333 45.3333333333 494 16 494 c 1
 16 515 l 1xec
 37.3333333333 513 58 512 78 512 c 0
 97.3333333333 512 115.833333333 513.166666667 133.5 515.5 c 0
 151.166666667 517.833333333 167.333333333 521.333333333 182 526 c 1xdc
 182 133 l 2
 182 112.333333333 183.333333333 93.3333333333 186 76 c 0
 188.666666667 58.6666666667 195.333333333 44.6666666667 206 34 c 0
 216.666666667 23.3333333333 234 18 258 18 c 0
 297.333333333 18 329.666666667 35.5 355 70.5 c 0
 380.333333333 105.5 393 148.333333333 393 199 c 2
 393 406 l 2
 393 436 387.666666667 458.166666667 377 472.5 c 0
 366.333333333 486.833333333 346.333333333 494 317 494 c 1
 317 515 l 1xec
 338.333333333 513 359 512 379 512 c 0
 398.333333333 512 416.833333333 513.166666667 434.5 515.5 c 0
 452.166666667 517.833333333 468.333333333 521.333333333 483 526 c 1
 483 -98 l 2xdc
EndSplineSet
Fore
SplineSet
473 531 m 1
 490 524 l 1
 487.333333333 515.333333333 485.5 506 484.5 496 c 0
 483.5 486 483 476 483 466 c 2
 483 -98 l 2
 483 -122 488 -138.333333333 498 -147 c 0
 508 -155.666666667 525 -160 549 -160 c 1
 549 -181 l 1
 538.333333333 -180.333333333 523 -179.5 503 -178.5 c 0
 483 -177.5 462.333333333 -177 441 -177 c 0
 412.333333333 -177 384.833333333 -177.5 358.5 -178.5 c 0
 332.166666667 -179.5 311.666666667 -180.333333333 297 -181 c 1
 297 -160 l 1
 327 -160 350.5 -155.166666667 367.5 -145.5 c 0
 384.5 -135.833333333 393 -116.666666667 393 -88 c 2
 393 439.502919323 l 1
 381.09070547 460.076401833 365.757372137 475.742095392 347 486.5 c 0
 324.333333333 499.5 308.333007812 506 279 506 c 0
 201.013470551 506 182 360.492839018 182 257 c 2
 182 93 l 2
 182 65 187.833007812 46 199.5 36 c 0
 211.166992188 26 230.666992188 21 258 21 c 1
 258 0 l 1
 246.666992188 0.6669921875 229.5 1.5 206.5 2.5 c 0
 183.5 3.5 160.333007812 4 137 4 c 0
 114.333007812 4 91.3330078125 3.5 68 2.5 c 0
 44.6669921875 1.5 27.3330078125 0.6669921875 16 0 c 1
 16 21 l 1
 43.3330078125 21 62.8330078125 26 74.5 36 c 0
 86.1669921875 46 93.1943359375 65.0087890625 92 93 c 2
 92 257 l 2
 92 403.85928543 122.637790372 529 271 529 c 0
 312.333007812 529 335.666666667 520.166666667 361 502.5 c 0
 376.822780378 491.465692631 390.434968768 475.945183875 401.836565169 455.938473731 c 1
 408.045525497 462.292315821 414.100003774 468.64615791 420 475 c 0
 428.666666667 484.333333333 437.5 493.666666667 446.5 503 c 0
 455.5 512.333333333 464.333333333 521.666666667 473 531 c 1
EndSplineSet
EndChar

StartChar: dy
Encoding: 37 60817 49
Width: 581
GlyphClass: 2
Flags: W
HStem: -181 21<297 359.055 501.532 549> -14 32<206.253 299.445> 494 21<16 63.2656 317 364.266> 506 20G<174.667 182 475.667 483>
VStem: 92 90<38.417 471.822> 393 90<-142.889 471.822>
AnchorPoint: "Top" 264 701 basechar 0
AnchorPoint: "Bottom" 221 0 basechar 0
LayerCount: 2
Back
SplineSet
261 529 m 0
 302.333333333 529 335.666666667 520.166666667 361 502.5 c 128
 386.333333333 484.833333333 406 455.666666667 420 415 c 1
 400 426 l 1
 387.333333333 453.333333333 369.666666667 473.5 347 486.5 c 128
 324.333333333 499.5 298.333333333 506 269 506 c 0
 229.666666667 506 199 485.666666667 177 445 c 128
 155 404.333333333 144 341.666666667 144 257 c 0
 144 203.666666667 149.333333333 159 160 123 c 128
 170.666666667 87 186.333333333 60.1666666667 207 42.5 c 128
 227.666666667 24.8333333333 252.666666667 16 282 16 c 0
 310 16 335.666666667 29.6666666667 359 57 c 128
 382.333333333 84.3333333333 396 124.666666667 400 178 c 1
 412 164 l 1
 407.333333333 107.333333333 390.166666667 63.5 360.5 32.5 c 128
 330.833333333 1.5 295 -14 253 -14 c 0
 215 -14 180.333333333 -4.16666666667 149 15.5 c 128
 117.666666667 35.1666666667 92.8333333333 65.1666666667 74.5 105.5 c 128
 56.1666666667 145.833333333 47 196.333333333 47 257 c 256
 47 317.666666667 56.5 368.166666667 75.5 408.5 c 128
 94.5 448.833333333 120.166666667 479 152.5 499 c 128
 184.833333333 519 221 529 261 529 c 0
473 531 m 1
 490 524 l 1
 487.333333333 515.333333333 485.5 506 484.5 496 c 128
 483.5 486 483 476 483 466 c 2
 483 -98 l 6
 483 -122 488 -138.333333333 498 -147 c 132
 508 -155.666666667 525 -160 549 -160 c 5
 549 -181 l 5
 538.333333333 -180.333333333 523 -179.5 503 -178.5 c 132
 483 -177.5 462.333333333 -177 441 -177 c 4
 412.333333333 -177 384.833333333 -177.5 358.5 -178.5 c 132
 332.166666667 -179.5 311.666666667 -180.333333333 297 -181 c 5
 297 -160 l 5
 327 -160 350.5 -155.166666667 367.5 -145.5 c 132
 384.5 -135.833333333 393 -116.666666667 393 -88 c 6
 393 447 l 1
 402.333333333 456.333333333 411.333333333 465.666666667 420 475 c 128
 428.666666667 484.333333333 437.5 493.666666667 446.5 503 c 128
 455.5 512.333333333 464.333333333 521.666666667 473 531 c 1
EndSplineSet
Fore
SplineSet
483 -98 m 2xdc
 483 -122 488 -138.333333333 498 -147 c 0
 508 -155.666666667 525 -160 549 -160 c 1
 549 -181 l 1
 538.333333333 -180.333333333 523 -179.5 503 -178.5 c 0
 483 -177.5 462.333333333 -177 441 -177 c 0
 412.333333333 -177 384.833333333 -177.5 358.5 -178.5 c 0
 332.166666667 -179.5 311.666666667 -180.333333333 297 -181 c 1
 297 -160 l 1
 327 -160 350.5 -155.166666667 367.5 -145.5 c 0
 384.5 -135.833333333 393 -116.666666667 393 -88 c 1
 393 106 l 1
 376.333333333 62.6666666667 352.833333333 31.8333333333 322.5 13.5 c 0
 292.166666667 -4.83333333333 261 -14 229 -14 c 0
 205.666666667 -14 185.333333333 -10.6666666667 168 -4 c 0
 150.666666667 2.66666666667 136.333333333 12 125 24 c 0
 112.333333333 37.3333333333 103.666666667 54.6666666667 99 76 c 0
 94.3333333333 97.3333333333 92 123.666666667 92 155 c 2
 92 406 l 2
 92 436 86.6666666667 458.166666667 76 472.5 c 0
 65.3333333333 486.833333333 45.3333333333 494 16 494 c 1
 16 515 l 1xec
 37.3333333333 513 58 512 78 512 c 0
 97.3333333333 512 115.833333333 513.166666667 133.5 515.5 c 0
 151.166666667 517.833333333 167.333333333 521.333333333 182 526 c 1xdc
 182 133 l 2
 182 112.333333333 183.333333333 93.3333333333 186 76 c 0
 188.666666667 58.6666666667 195.333333333 44.6666666667 206 34 c 0
 216.666666667 23.3333333333 234 18 258 18 c 0
 297.333333333 18 329.666666667 35.5 355 70.5 c 0
 380.333333333 105.5 393 148.333333333 393 199 c 2
 393 406 l 2
 393 436 387.666666667 458.166666667 377 472.5 c 0
 366.333333333 486.833333333 346.333333333 494 317 494 c 1
 317 515 l 1xec
 338.333333333 513 359 512 379 512 c 0
 398.333333333 512 416.833333333 513.166666667 434.5 515.5 c 0
 452.166666667 517.833333333 468.333333333 521.333333333 483 526 c 1
 483 -98 l 2xdc
EndSplineSet
EndChar

StartChar: gy
Encoding: 38 60818 50
Width: 626
GlyphClass: 2
Flags: W
HStem: -181 21<335 397.616 539.378 586> 0 21<29 80.7902 215.777 261> 493 21<29 77.785 365 410.223 545.21 597> 506 20G<187.667 195>
VStem: 105 90<104.967 471.822> 431 90<-140.525 397.073 429.965 477.504>
AnchorPoint: "Top" 303 701 basechar 0
AnchorPoint: "Bottom" 312 0 basechar 0
LayerCount: 2
Back
SplineSet
441 522 m 5xbc
 425.8125 526.499023438 410.812145525 529 390 529 c 4xbc
 356 529 323.5 520.166666667 292.5 502.5 c 4
 261.5 484.833333333 237.333333333 453.333333333 220 408 c 5
 220 526 l 5
 205.333333333 521.333333333 189.166666667 517.833333333 171.5 515.5 c 4
 153.833333333 513.166666667 135.333333333 512 116 512 c 4
 96 512 75.3333333333 513 54 515 c 5
 54 494 l 5xdc
 83.3333333333 494 103.333333333 486.833333333 114 472.5 c 4
 124.666666667 458.166666667 130 436 130 406 c 6
 130 93 l 6
 130 65 124.166666667 46 112.5 36 c 4
 100.833333333 26 81.3333333333 21 54 21 c 5
 54 0 l 5
 65.3333333333 0.666666666667 82.6666666667 1.5 106 2.5 c 4
 129.333333333 3.5 152 4 174 4 c 260
 196 4 217.5 3.5 238.5 2.5 c 4
 259.5 1.5 275.333333333 0.666666666667 286 0 c 5
 286 21 l 5
 262 21 245 26 235 36 c 4
 225 46 220 65 220 93 c 6
 220 315 l 6
 220 366.333333333 232.833333333 409.5 258.5 444.5 c 4
 284.166666667 479.5 318 497 360 497 c 4
 384 497 401.833333333 491.666666667 413.5 481 c 4
 425.166666667 470.333333333 432.666666667 456.333333333 436 439 c 4
 439.333333333 421.666666667 441 402.666666667 441 382 c 6
 441 93 l 6
 441 65 436 46 426 36 c 4
 416 26 399 21 375 21 c 5
 375 0 l 5
 385.666666667 0.666666666667 401.5 1.5 422.5 2.5 c 4
 443.5 3.5 465 4 487 4 c 260
 509 4 531.666666667 3.5 555 2.5 c 4
 578.333333333 1.5 595.666666667 0.666666666667 607 0 c 5
 607 21 l 5
 579.666666667 21 560.166666667 26 548.5 36 c 4
 536.833333333 46 531 65 531 93 c 6
 531 360 l 6
 531 394 531 784 531 784 c 5
 516.333333333 779.333333333 500.166666667 775.833333333 482.5 773.5 c 4
 464.833333333 771.166666667 446.333333333 770 427 770 c 4
 407 770 386.333333333 771 365 773 c 5
 365 752 l 5
 394.333333333 752 414.333333333 744.833333333 425 730.5 c 4
 435.666666667 716.166666667 441 694.010707172 441 664 c 6
 441 522 l 5xbc
444 522.250976562 m 1029
521 -98 m 2
 521 -122 526 -138.333007812 536 -147 c 0
 546 -155.666992188 563 -160 587 -160 c 1
 587 -181 l 1
 576.333007812 -180.333007812 561 -179.5 541 -178.5 c 0
 521 -177.5 500.333007812 -177 479 -177 c 0
 450.333007812 -177 422.833007812 -177.5 396.5 -178.5 c 0
 370.166992188 -179.5 349.666992188 -180.333007812 335 -181 c 1
 335 -160 l 1
 365 -160 388.5 -155.166992188 405.5 -145.5 c 0
 422.5 -135.833007812 431 -116.666992188 431 -88 c 1
 431 106 l 1
 414.333007812 62.6669921875 390.833007812 31.8330078125 360.5 13.5 c 0
 330.166992188 -4.8330078125 299 -14 267 -14 c 0
 243.666992188 -14 223.333007812 -10.6669921875 206 -4 c 0
 188.666992188 2.6669921875 174.333007812 12 163 24 c 0
 150.333007812 37.3330078125 141.666992188 54.6669921875 137 76 c 0
 132.333007812 97.3330078125 130 123.666992188 130 155 c 2
 130 406 l 2
 130 436 124.666992188 458.166992188 114 472.5 c 0
 103.333007812 486.833007812 83.3330078125 494 54 494 c 1
 54 515 l 1
 75.3330078125 513 96 512 116 512 c 0
 135.333007812 512 153.833007812 513.166992188 171.5 515.5 c 0
 189.166992188 517.833007812 205.333007812 521.333007812 220 526 c 1
 220 133 l 2
 220 112.333007812 221.333007812 93.3330078125 224 76 c 0
 226.666992188 58.6669921875 233.333007812 44.6669921875 244 34 c 0
 254.666992188 23.3330078125 272 18 296 18 c 0
 335.333007812 18 367.666992188 35.5 393 70.5 c 0
 418.333007812 105.5 431 148.333007812 431 199 c 2
 431 406 l 2
 431 436 425.666992188 458.166992188 415 472.5 c 0
 404.333007812 486.833007812 384.333007812 494 355 494 c 1
 355 515 l 1
 376.333007812 513 397 512 417 512 c 0
 436.333007812 512 454.833007812 513.166992188 472.5 515.5 c 0
 490.166992188 517.833007812 506.333007812 521.333007812 521 526 c 1
 521 -98 l 2
EndSplineSet
Fore
SplineSet
597 514 m 1xec
 597 493 l 1xec
 569.666666667 493 550.166666667 488 538.5 478 c 0
 526.833333333 468 521 421 521 421 c 2
 521 -84 l 2
 521 -132.875108721 523.911766809 -160.000720083 586 -160 c 1
 586 -181 l 1
 563.058214574 -179.649785485 506.71484375 -177 474 -177 c 0
 429.13671875 -177 371.416342953 -178.722936717 335 -181 c 1
 335 -160 l 1
 359 -160 406 -151 416 -141 c 0
 426 -131 431 -112 431 -84 c 2
 431 397.072727273 l 1
 196.074858518 72.4488954067 l 1
 198.035173069 55.4727449063 202.676886896 43.3231131041 210 36 c 0
 220 26 237 21 261 21 c 1
 261 0 l 1
 250.333333333 0.666666666667 234.5 1.5 213.5 2.5 c 0
 192.5 3.5 171 4 149 4 c 0
 127 4 104.333333333 3.5 81 2.5 c 0
 57.6666666667 1.5 40.3333333333 0.666666666667 29 0 c 1
 29 21 l 1
 56.3333333333 21 75.8333333333 26 87.5 36 c 0
 99.1666666667 46 105 65.6227164191 105 93 c 2
 105 406 l 2
 105 436 99.6669921875 458.166992188 89 472.5 c 0
 78.3330078125 486.833007812 58.3330078125 494 29 494 c 1
 29 515 l 1
 50.3330078125 513 71 512 91 512 c 0
 110.333007812 512 128.833007812 513.166992188 146.5 515.5 c 0
 164.166992188 517.833007812 180.333007812 521.333007812 195 526 c 1xdc
 195 104.967272727 l 1
 430.816306491 429.965018764 l 1
 429.832141797 453.094966621 424.893372967 469.106627033 416 478 c 0
 406 488 389 493 365 493 c 1
 365 514 l 1
 375.666666667 513.333333333 391.5 512.5 412.5 511.5 c 0
 433.5 510.5 455 510 477 510 c 0
 499 510 521.666666667 510.5 545 511.5 c 0
 568.333333333 512.5 585.666666667 513.333333333 597 514 c 1xec
EndSplineSet
EndChar

StartChar: vy
Encoding: 39 60819 51
Width: 476
VWidth: 988
GlyphClass: 2
Flags: W
HStem: -11 21<119 170.79 309.21 361> 500 15<164.421 327>
VStem: 55 23<339 406.781> 195 90<25.4753 233.602>
AnchorPoint: "Bottom" 240 0 basechar 0
AnchorPoint: "Top" 239 701 basechar 0
LayerCount: 2
Back
SplineSet
285 515 m 5xb0
 285 82 l 6
 285 54 290.833007812 35 302.5 25 c 4
 314.166992188 15 333.666992188 10 361 10 c 5
 361 -11 l 5
 349.666992188 -10.3330078125 332.5 -9.5 309.5 -8.5 c 4
 286.5 -7.5 263.333007812 -7 240 -7 c 4
 217.333007812 -7 194.333007812 -7.5 171 -8.5 c 4
 147.666992188 -9.5 130.333007812 -10.3330078125 119 -11 c 5
 119 10 l 5
 146.333007812 10 165.833007812 15 177.5 25 c 4
 189.166992188 35 195 54 195 82 c 6
 195 395 l 6
 195 425 189.666992188 447.166992188 179 461.5 c 4
 168.333007812 475.833007812 148.333007812 483 119 483 c 5
 119 504 l 5xd0
 140.333007812 502 161 501 181 501 c 4
 200.333007812 501 218.833007812 502.166992188 236.5 504.5 c 4
 254.166992188 506.833007812 270.333007812 510.333007812 285 515 c 5xb0
439 520 m 5
 150 15 l 5
 260 15 l 6
 286.666666667 15 309.833333333 20.3333333333 329.5 31 c 132
 349.166666667 41.6666666667 365 58.8333333333 377 82.5 c 132
 389 106.166666667 396.333333333 137.333333333 399 176 c 5
 422 176 l 5
 422 133.333333333 422.333333333 97.3333333333 423 68 c 132
 423.666666667 38.6666666667 424.666666667 14.6666666667 426 -4 c 5
 396.666666667 -2.66666666667 366.166666667 -1.66666666667 334.5 -1 c 132
 302.833333333 -0.333333333333 271.333333333 0 240 0 c 4
 206.666666667 0 172.666666667 -0.5 138 -1.5 c 132
 103.333333333 -2.5 70 -3.66666666667 38 -5 c 5
 327 500 l 5
 217 500 l 6
 187.666666667 500 163.166666667 494.666666667 143.5 484 c 132
 123.833333333 473.333333333 108.833333333 456.166666667 98.5 432.5 c 132
 88.1666666667 408.833333333 81.3333333333 377.666666667 78 339 c 5
 55 339 l 5
 55 382.333333333 54.6666666667 418.5 54 447.5 c 132
 53.3333333333 476.5 52.3333333333 500.333333333 51 519 c 5
 80.3333333333 517.666666667 110.833333333 516.666666667 142.5 516 c 132
 174.166666667 515.333333333 205.666666667 515 237 515 c 4
 270.333333333 515 304.333333333 515.5 339 516.5 c 132
 373.666666667 517.5 407 518.666666667 439 520 c 5
EndSplineSet
Fore
SplineSet
285 82 m 1
 285 54 290.833007812 35 302.5 25 c 0
 314.166992188 15 333.666992188 10 361 10 c 1
 361 -11 l 1
 349.666992188 -10.3330078125 332.5 -9.5 309.5 -8.5 c 0
 286.5 -7.5 263.333007812 -7 240 -7 c 0
 217.333007812 -7 194.333007812 -7.5 171 -8.5 c 0
 147.666992188 -9.5 130.333007812 -10.3330078125 119 -11 c 1
 119 10 l 1
 146.333007812 10 165.833007812 15 177.5 25 c 0
 189.166992188 35 195 54 195 82 c 1
 195 252 286 436 327 500 c 1
 217 500 l 2
 187.666666667 500 163.166666667 494.666666667 143.5 484 c 0
 123.833333333 473.333333333 108.833333333 456.166666667 98.5 432.5 c 0
 88.1666666667 408.833333333 81.3333333333 377.666666667 78 339 c 1
 55 339 l 1
 55 382.333333333 54.6666666667 418.5 54 447.5 c 0
 53.3333333333 476.5 52.3333333333 500.333333333 51 519 c 1
 80.3333333333 517.666666667 110.833333333 516.666666667 142.5 516 c 0
 174.166666667 515.333333333 205.666666667 515 237 515 c 0
 270.333333333 515 304.333333333 515.5 339 516.5 c 0
 373.666666667 517.5 407 518.666666667 439 520 c 1
 363 391 286 254 285 82 c 1
EndSplineSet
EndChar

StartChar: ry
Encoding: 40 60820 52
Width: 498
GlyphClass: 2
Flags: W
HStem: -14 18<137.464 243.008> 506 23<171.668 264.925>
VStem: 45 111<44.595 126.044> 62 23<365 413.299 493.347 529> 355 97<144.528 390.472>
AnchorPoint: "Top" 238 701 basechar 0
AnchorPoint: "Bottom" 233 0 basechar 0
LayerCount: 2
Fore
SplineSet
234 529 m 0xd8
 276 529 313.333333333 518.166666667 346 496.5 c 0
 378.666666667 474.833333333 404.5 444.5 423.5 405.5 c 0
 442.5 366.5 452 320.666666667 452 268 c 4
 452 210.666666667 440.833333333 160.833333333 418.5 118.5 c 4
 396.166666667 76.1666666667 366 43.5 328 20.5 c 4
 290 -2.5 247.333333333 -14 200 -14 c 4
 182 -14 164.166666667 -12 146.5 -8 c 4
 128.833333333 -4 112 2.66666666667 96 12 c 4
 82 20.6666666667 70 31.3333333333 60 44 c 4
 50 56.6666666667 45 71 45 87 c 4xe8
 45 103.666666667 50.6666666667 116.833333333 62 126.5 c 4xd8
 73.3333333333 136.166666667 86.3333333333 141 101 141 c 4
 116.333333333 141 129.333333333 136.166666667 140 126.5 c 4
 150.666666667 116.833333333 156 104 156 88 c 4xe8
 156 73.3333333333 151.5 61.3333333333 142.5 52 c 4
 133.5 42.6666666667 123 36.6666666667 111 34 c 5
 117 22 129.333333333 14 148 10 c 4
 166.666666667 6 182.333333333 4 195 4 c 4
 221.666666667 4 247.166666667 11.3333333333 271.5 26 c 4
 295.833333333 40.6666666667 315.833333333 66.3333333333 331.5 103 c 4
 347.166666667 139.666666667 355 191 355 257 c 4
 355 316.333333333 348.666666667 364.333333333 336 401 c 0
 323.333333333 437.666666667 306.666666667 464.333333333 286 481 c 0
 265.333333333 497.666666667 243.333333333 506 220 506 c 0
 197.333333333 506 177 500.166666667 159 488.5 c 0
 141 476.833333333 127.333333333 464.666666667 118 452 c 0
 108 439.333333333 100.5 425.5 95.5 410.5 c 0
 90.5 395.5 87 380.333333333 85 365 c 1
 62 365 l 1
 62 405.666666667 61.6666666667 438.833333333 61 464.5 c 0
 60.3333333333 490.166666667 59.3333333333 511.666666667 58 529 c 1
 81 529 l 1
 83.6666666667 512.333333333 88.6666666667 500.333333333 96 493 c 0
 103.333333333 485.666666667 113.333333333 486 126 494 c 0
 142 503.333333333 157.833333333 511.5 173.5 518.5 c 0
 189.166666667 525.5 209.333333333 529 234 529 c 0xd8
EndSplineSet
EndChar

StartChar: zy
Encoding: 41 60821 53
Width: 581
GlyphClass: 2
Flags: W
HStem: -181 21<32 79.4675 221.945 284> -14 23<244.16 348.842> 494 21<22 69.2656> 499 30<276.792 372.109>
VStem: 98 90<-142.889 40.6221 42.9271 471.822> 437 97<147.05 412.131>
AnchorPoint: "Top" 288 701 basechar 0
AnchorPoint: "Bottom" 341 0 basechar 0
LayerCount: 2
Fore
SplineSet
348 529 m 0xdc
 400.666666667 529 444.833333333 507.833333333 480.5 465.5 c 0
 516.166666667 423.166666667 534 361.666666667 534 281 c 0
 534 233 526.166666667 186.333333333 510.5 141 c 0
 494.833333333 95.6666666667 470.333333333 58.5 437 29.5 c 0
 403.666666667 0.5 359.666666667 -14 305 -14 c 0
 273.666666667 -14 246.5 -6.66666666667 223.5 8 c 0
 208.459389136 17.5911141741 196.626055803 28.4651393605 188 40.6220755592 c 1
 188 -88 l 2
 188 -116.666666667 196.5 -135.833333333 213.5 -145.5 c 0
 230.5 -155.166666667 254 -160 284 -160 c 1
 284 -181 l 1
 269.333333333 -180.333333333 249 -179.5 223 -178.5 c 0
 197 -177.5 169.333333333 -177 140 -177 c 0
 119.333333333 -177 98.8333333333 -177.5 78.5 -178.5 c 0
 58.1666666667 -179.5 42.6666666667 -180.333333333 32 -181 c 1
 32 -160 l 1
 56 -160 73 -155.666666667 83 -147 c 0
 93 -138.333333333 98 -122 98 -98 c 2
 98 406 l 2
 98 436 92.6666666667 458.166666667 82 472.5 c 0
 71.3333333333 486.833333333 51.3333333333 494 22 494 c 1
 22 515 l 1xec
 43.3333333333 513 64 512 84 512 c 0
 103.333333333 512 121.833333333 513.166666667 139.5 515.5 c 0
 157.166666667 517.833333333 173.333333333 521.333333333 188 526 c 1
 188 421.863386808 l 1
 198.264611788 445.431299051 212.097945121 465.476836782 229.5 482 c 0
 262.5 513.333333333 302 529 348 529 c 0xdc
188 73.0420372324 m 1
 197.287867764 55.2352896116 210.454534431 40.2212772008 227.5 28 c 0
 245.166666667 15.3333333333 267.333333333 9 294 9 c 0
 331.333333333 9 360.333333333 20.6666666667 381 44 c 0
 401.666666667 67.3333333333 416.166666667 98.5 424.5 137.5 c 0
 432.833333333 176.5 437 219.666666667 437 267 c 0
 437 320.333333333 432.666666667 364 424 398 c 0
 415.333333333 432 402.333333333 457.333333333 385 474 c 0
 367.666666667 490.666666667 346.333333333 499 321 499 c 0xdc
 288.333333333 499 258.666666667 485.5 232 458.5 c 0
 211.770114943 438.017241379 197.103448276 409.573325406 188 373.168252081 c 1
 188 73.0420372324 l 1
EndSplineSet
EndChar

StartChar: jy
Encoding: 42 60822 54
Width: 587
GlyphClass: 2
Flags: W
HStem: -181 21<32 79.4675 221.945 284> -14 32<212.671 306.663> -1 21<518.4 565> 494 21<22 69.2654 323 370.265>
VStem: 98 90<-142.889 -88 36.5611 133 406 471.801> 399 90<42.1776 199 406 471.822>
AnchorPoint: "Top" 275 701 basechar 0
AnchorPoint: "Bottom" 354 0 basechar 0
LayerCount: 2
Fore
SplineSet
235 -14 m 3xdc
 273 -14 298.166992188 -4.8330078125 328.5 13.5 c 0
 358.833007812 31.8330078125 382.333007812 62.6669921875 399 106 c 1
 399 -12 l 1
 413.666992188 -6.6669921875 429.833007812 -3 447.5 -1 c 0
 465.166992188 1 483.666992188 2 503 2 c 0
 523.666992188 2 544.333007812 1 565 -1 c 1
 565 20 l 1xbc
 536.333007812 20 516.5 27.1669921875 505.5 41.5 c 0
 494.5 55.8330078125 489 78 489 108 c 2
 489 526 l 1
 474.333007812 521.333007812 458.166992188 517.833007812 440.5 515.5 c 0
 422.833007812 513.166992188 404.333007812 512 385 512 c 0
 365 512 344.333007812 513 323 515 c 1
 323 494 l 1
 352.333007812 494 372.333007812 486.833007812 383 472.5 c 0
 393.666992188 458.166992188 399 436 399 406 c 2
 399 199 l 2
 399 148.333007812 386.333007812 105.5 361 70.5 c 0
 335.666992188 35.5 303.333007812 18 264 18 c 0
 240 18 222.666992188 23.3330078125 212 34 c 0
 201.333007812 44.6669921875 194.666992188 58.6669921875 192 76 c 0
 189.333007812 93.3330078125 188 112.333007812 188 133 c 2
 188 526 l 1
 173.333007812 521.333007812 157.166992188 517.833007812 139.5 515.5 c 0
 121.833007812 513.166992188 103.333007812 512 84 512 c 0
 64 512 43.3330078125 513 22 515 c 1
 22 494 l 1
 51.3330078125 494 71.3330078125 486.833007812 82 472.5 c 0
 92.6669921875 458.166992188 98 406 98 406 c 2
 98 -98 l 2
 98 -122 93 -138.333333333 83 -147 c 0
 73 -155.666666667 56 -160 32 -160 c 1
 32 -181 l 1
 42.6666666667 -180.333333333 58.1666666667 -179.5 78.5 -178.5 c 0
 98.8333333333 -177.5 119.333333333 -177 140 -177 c 0
 169.333333333 -177 197 -177.5 223 -178.5 c 0
 249 -179.5 269.333333333 -180.333333333 284 -181 c 1
 284 -160 l 1
 254 -160 230.5 -155.166666667 213.5 -145.5 c 0
 196.5 -135.833333333 188 -117 188 -88 c 10
 188 14 l 0
 185 14 198 -14 235 -14 c 3xdc
EndSplineSet
EndChar

StartChar: ny
Encoding: 43 60823 55
Width: 476
VWidth: 988
GlyphClass: 2
Flags: W
HStem: -14 44<213.312 342.42> 500 15<164.421 327>
VStem: 55 23<339 406.781> 70 90<82.2327 221.064> 419 19<112.733 127.579>
AnchorPoint: "Top" 240 701 basechar 0
AnchorPoint: "Bottom" 205 0 basechar 0
LayerCount: 2
Back
SplineSet
279 529 m 4
 300.333333333 529 321 526.333333333 341 521 c 132
 361 515.666666667 379 507.666666667 395 497 c 4
 410.333333333 487 422 475.5 430 462.5 c 132
 438 449.5 442 435.333333333 442 420 c 4
 442 402 437 388.166666667 427 378.5 c 132
 417 368.833333333 404.333333333 364 389 364 c 4
 374.333333333 364 361.5 368.333333333 350.5 377 c 132
 339.5 385.666666667 334 398 334 414 c 4
 334 429.333333333 338.166666667 441.666666667 346.5 451 c 132
 354.833333333 460.333333333 364.666666667 466.333333333 376 469 c 5
 369.333333333 481 357.5 491 340.5 499 c 132
 323.5 507 305.333333333 511 286 511 c 4
 269.333333333 511 252.666666667 507 236 499 c 132
 219.333333333 491 204 477.833333333 190 459.5 c 132
 176 441.166666667 164.666666667 416.166666667 156 384.5 c 132
 147.333333333 352.833333333 143 313.333333333 143 266 c 4
 143 207.333333333 149.666666667 160.666666667 163 126 c 132
 176.333333333 91.3333333333 193.833333333 66.5 215.5 51.5 c 132
 237.166666667 36.5 261 29 287 29 c 260
 313 29 339.333333333 36.6666666667 366 52 c 132
 392.666666667 67.3333333333 414.666666667 94 432 132 c 5
 451 125 l 5
 444.333333333 103.666666667 433.333333333 82.1666666667 418 60.5 c 132
 402.666666667 38.8333333333 382.666666667 21 358 7 c 132
 333.333333333 -7 303 -14 267 -14 c 4
 225.666666667 -14 188.333333333 -3.33333333333 155 18 c 132
 121.666666667 39.3333333333 95.1666666667 69.8333333333 75.5 109.5 c 132
 55.8333333333 149.166666667 46 196.333333333 46 251 c 260
 46 305.666666667 55.8333333333 353.833333333 75.5 395.5 c 132
 95.1666666667 437.166666667 122.666666667 469.833333333 158 493.5 c 132
 193.333333333 517.166666667 233.666666667 529 279 529 c 4
EndSplineSet
Fore
SplineSet
160 142 m 3xd8
 160 84.9912109375 216 30 276 30 c 256
 345 30 407.611328125 90.716796875 419 132 c 1
 438 125 l 1
 426.469726562 75.52734375 368 -14 256 -14 c 0
 152.311337728 -14 70 54.9375 70 156 c 3xd8
 70 302.213867188 252.810109542 397.665673871 327 500 c 1
 217 500 l 2
 187.666666667 500 163.166666667 494.666666667 143.5 484 c 0
 123.833333333 473.333333333 108.833333333 456.166666667 98.5 432.5 c 0
 88.1666666667 408.833333333 81.3333333333 377.666666667 78 339 c 1
 55 339 l 1xe8
 55 382.333333333 54.6666666667 418.5 54 447.5 c 0
 53.3333333333 476.5 52.3333333333 500.333333333 51 519 c 1
 80.3333333333 517.666666667 110.833333333 516.666666667 142.5 516 c 0
 174.166666667 515.333333333 205.666666667 515 237 515 c 0
 270.333333333 515 304.333333333 515.5 339 516.5 c 0
 373.666666667 517.5 407 518.666666667 439 520 c 1
 361.163811198 377.169522136 160 294 160 142 c 3xd8
100 514 m 1025
EndSplineSet
EndChar

StartChar: bahebu
Encoding: 44 60824 56
Width: 0
VWidth: 0
GlyphClass: 4
Flags: W
HStem: -194 124<-309.03 -214.583>
VStem: -323 123<-179.661 -84.3391>
AnchorPoint: "Bottom" -262 0 mark 0
LayerCount: 2
Fore
SplineSet
-323 -132 m 4
 -323 -123 -322 -116 -319 -108 c 4
 -316 -100 -311 -94 -306 -88 c 4
 -301 -82 -294 -78 -286 -75 c 4
 -278 -72 -271 -70 -262 -70 c 260
 -253 -70 -246 -72 -238 -75 c 4
 -230 -78 -224 -82 -218 -88 c 4
 -212 -94 -208 -100 -205 -108 c 4
 -202 -116 -200 -123 -200 -132 c 4
 -200 -141 -202 -149 -205 -156 c 4
 -208 -163 -212 -170 -218 -176 c 4
 -224 -182 -230 -186 -238 -189 c 4
 -246 -192 -253 -194 -262 -194 c 260
 -271 -194 -278 -192 -286 -189 c 4
 -294 -186 -301 -182 -306 -176 c 4
 -311 -170 -316 -163 -319 -156 c 4
 -322 -149 -323 -141 -323 -132 c 4
EndSplineSet
EndChar

StartChar: smajibu
Encoding: 45 60825 57
Width: 416
VWidth: 988
GlyphClass: 2
Flags: W
HStem: 224 74<70 343>
VStem: 70 273<224 298>
LayerCount: 2
Fore
SplineSet
70 298 m 1
 343 298 l 1
 343 224 l 1
 70 224 l 1
 70 298 l 1
EndSplineSet
Substitution2: "Single Substitution lookup 60 subtable" smajibu.fina
Substitution2: "Single Substitution lookup 59 subtable" smajibu.fina
Substitution2: "Single Substitution lookup 58 subtable" smajibu.fina
Substitution2: "Single Substitution lookup 56 subtable" smajibu.medi
Substitution2: "Single Substitution lookup 55 subtable" smajibu.medi
Substitution2: "Single Substitution lookup 54 subtable" smajibu.medi
Substitution2: "Single Substitution lookup 53 subtable" smajibu.medi
Substitution2: "Single Substitution lookup 52 subtable" smajibu.medi
Substitution2: "Single Substitution lookup 51 subtable" smajibu.medi
Substitution2: "Single Substitution lookup 49 subtable" smajibu.init
Substitution2: "Single Substitution lookup 48 subtable" smajibu.init
Substitution2: "Single Substitution lookup 47 subtable" smajibu.init
EndChar

StartChar: tcenabu
Encoding: 47 60827 59
Width: 0
VWidth: 988
GlyphClass: 4
Flags: W
HStem: -169 74<-528 2>
AnchorPoint: "Bottom" -263 0 mark 0
LayerCount: 2
Fore
SplineSet
-528 -95 m 1
 2 -95 l 1
 2 -169 l 1
 -528 -169 l 1
 -528 -95 l 1
EndSplineSet
EndChar

StartChar: abu
Encoding: 52 60832 64
Width: 0
GlyphClass: 4
Flags: W
HStem: 588.811 236.865
VStem: -39.9404 76.5537<665.55 813.268> -8.96484 14.3125<589.176 646.085>
AnchorPoint: "Top" 0 701 mark 0
LayerCount: 2
Fore
SplineSet
-0.9091796875 825.67578125 m 256xc0
 9.2451171875 825.6953125 18.05078125 821.686523438 25.5087890625 813.6484375 c 0
 32.9658203125 805.610351562 36.6669921875 793.231445312 36.61328125 776.51171875 c 0xc0
 36.2958984375 760.403320312 34.4658203125 745.278320312 31.1240234375 731.133789062 c 0
 27.7822265625 716.990234375 23.572265625 699.385742188 18.494140625 678.323242188 c 0
 13.416015625 657.259765625 9.0341796875 627.422851562 5.34765625 588.810546875 c 1
 -8.96484375 589.17578125 l 1xa0
 -11.8447265625 627.862304688 -15.8232421875 657.7265625 -20.8994140625 678.768554688 c 0
 -25.9736328125 699.810546875 -30.3427734375 717.528320312 -34.005859375 731.920898438 c 0
 -37.6669921875 746.314453125 -39.6455078125 761.431640625 -39.9404296875 777.276367188 c 0
 -39.8857421875 793.995117188 -35.90625 806.237304688 -28 814 c 0
 -20.09375 821.763671875 -11.0634765625 825.655273438 -0.9091796875 825.67578125 c 256xc0
EndSplineSet
MultipleSubs2: "Multiple Substitution lookup 62 subtable" denpabu abu
EndChar

StartChar: ebu
Encoding: 53 60833 65
Width: 0
VWidth: 988
GlyphClass: 4
Flags: W
HStem: 675 53<-102 102>
VStem: -102 204<675 728>
AnchorPoint: "Top" 0 701 mark 0
LayerCount: 2
Fore
SplineSet
-102 728 m 1
 102 728 l 1
 102 675 l 5
 -102 675 l 5
 -102 728 l 1
EndSplineSet
MultipleSubs2: "Multiple Substitution lookup 63 subtable" denpabu ebu
EndChar

StartChar: ibu
Encoding: 54 60834 66
Width: 0
GlyphClass: 4
Flags: W
HStem: 637 128<-47.3008 47.3008>
VStem: -64 128<653.699 748.301>
AnchorPoint: "Top" 0 701 mark 0
LayerCount: 2
Fore
SplineSet
0 765 m 256
 17.3330078125 765 32.3330078125 758.666992188 45 746 c 0
 57.6669921875 733.333007812 64 718.333007812 64 701 c 256
 64 683.666992188 57.6669921875 668.666992188 45 656 c 0
 32.3330078125 643.333007812 17.3330078125 637 0 637 c 256
 -17.3330078125 637 -32.3330078125 643.333007812 -45 656 c 0
 -57.6669921875 668.666992188 -64 683.666992188 -64 701 c 256
 -64 718.333007812 -57.6669921875 733.333007812 -45 746 c 0
 -32.3330078125 758.666992188 -17.3330078125 765 0 765 c 256
EndSplineSet
MultipleSubs2: "Multiple Substitution lookup 64 subtable" denpabu ibu
Substitution2: "Single Substitution lookup 33 subtable" iy
Substitution2: "Single Substitution lookup 32 subtable" iy
Substitution2: "Single Substitution lookup 31 subtable" iy
Substitution2: "Single Substitution lookup 30 subtable" iy
Substitution2: "Single Substitution lookup 29 subtable" iy
Substitution2: "Single Substitution lookup 28 subtable" iy
Substitution2: "Single Substitution lookup 27 subtable" iy
Substitution2: "Single Substitution lookup 26 subtable" iy
Substitution2: "Single Substitution lookup 25 subtable" iy
Substitution2: "Single Substitution lookup 24 subtable" iy
Substitution2: "Single Substitution lookup 13 subtable" iy
Substitution2: "Single Substitution lookup 12 subtable" iy
Substitution2: "Single Substitution lookup 11 subtable" iy
Substitution2: "Single Substitution lookup 10 subtable" iy
Substitution2: "Single Substitution lookup 9 subtable" iy
Substitution2: "Single Substitution lookup 8 subtable" iy
Substitution2: "Single Substitution lookup 7 subtable" iy
Substitution2: "Single Substitution lookup 6 subtable" iy
Substitution2: "Single Substitution lookup 5 subtable" iy
Substitution2: "Single Substitution lookup 4 subtable" iy
EndChar

StartChar: obu
Encoding: 55 60835 67
Width: 0
GlyphClass: 4
Flags: HW
HStem: 639 57<25.6166 107.376> 706 56<-112.338 -30.0679> 729 20G<135.42 158>
VStem: -163 14<655.5 661.783> 144 14<739.272 745.5>
AnchorPoint: "Top" 0 701 mark 0
LayerCount: 2
Back
SplineSet
-67 762 m 0
 -49 762 -33.6669921875 758.666992188 -21 752 c 128
 -8.3330078125 745.333007812 3.1669921875 737.666992188 13.5 729 c 128
 23.8330078125 720.333007812 34.5 712.666992188 45.5 706 c 128
 56.5 699.333007812 69.3330078125 696 84 696 c 0
 98 696 111.5 700.166992188 124.5 708.5 c 128
 137.5 716.833007812 149.666992188 730.333007812 161 749 c 1
 175 742 l 1
 164.333007812 705.333007812 148.333007812 679 127 663 c 128
 105.666992188 647 82.3330078125 639 57 639 c 0
 39 639 23.5 642.333007812 10.5 649 c 128
 -2.5 655.666992188 -14.1669921875 663.5 -24.5 672.5 c 128
 -34.8330078125 681.5 -45.5 689.333007812 -56.5 696 c 128
 -67.5 702.666992188 -80.3330078125 706 -95 706 c 0
 -109 706 -122.5 701.833007812 -135.5 693.5 c 128
 -148.5 685.166992188 -160.666992188 671.333007812 -172 652 c 1
 -186 659 l 1
 -175.333007812 696.333007812 -159.166992188 722.833007812 -137.5 738.5 c 128
 -115.833007812 754.166992188 -92.3330078125 762 -67 762 c 0
EndSplineSet
Fore
SplineSet
-82 706 m 7xd8
 -110.056640625 706 -121.903320312 681.165039062 -139 652 c 5
 -153 659 l 5
 -135.9609375 718.634765625 -109.94921875 762 -54 762 c 7xd8
 -1.48046875 762 30.4189453125 696 77 696 c 7
 104.625 696 116.83984375 720.735351562 134 749 c 5xb8
 148 742 l 5
 131.005859375 683.583007812 105.114257812 639 50 639 c 7
 -3.6220703125 639 -34.6611328125 706 -82 706 c 7xd8
EndSplineSet
MultipleSubs2: "Multiple Substitution lookup 65 subtable" denpabu obu
EndChar

StartChar: ubu
Encoding: 56 60836 68
Width: 0
GlyphClass: 4
Flags: W
HStem: 651 59<-65.3591 64.4201>
VStem: -139 278
AnchorPoint: "Top" 0 701 mark 0
LayerCount: 2
Fore
SplineSet
122 806 m 5
 139 797 l 5
 110.419921875 729.62890625 85.258834592 651 0 651 c 260
 -86.0360823696 651 -110.359375 729.48828125 -139 797 c 5
 -122 806 l 5
 -93.2890625 757.189453125 -71.0326644326 710 0 710 c 4
 72.0649556842 710 93.015625 756.724609375 122 806 c 5
EndSplineSet
MultipleSubs2: "Multiple Substitution lookup 66 subtable" denpabu ubu
Substitution2: "Single Substitution lookup 43 subtable" uy
Substitution2: "Single Substitution lookup 42 subtable" uy
Substitution2: "Single Substitution lookup 41 subtable" uy
Substitution2: "Single Substitution lookup 40 subtable" uy
Substitution2: "Single Substitution lookup 39 subtable" uy
Substitution2: "Single Substitution lookup 38 subtable" uy
Substitution2: "Single Substitution lookup 37 subtable" uy
Substitution2: "Single Substitution lookup 36 subtable" uy
Substitution2: "Single Substitution lookup 35 subtable" uy
Substitution2: "Single Substitution lookup 34 subtable" uy
Substitution2: "Single Substitution lookup 23 subtable" uy
Substitution2: "Single Substitution lookup 22 subtable" uy
Substitution2: "Single Substitution lookup 21 subtable" uy
Substitution2: "Single Substitution lookup 20 subtable" uy
Substitution2: "Single Substitution lookup 19 subtable" uy
Substitution2: "Single Substitution lookup 18 subtable" uy
Substitution2: "Single Substitution lookup 17 subtable" uy
Substitution2: "Single Substitution lookup 16 subtable" uy
Substitution2: "Single Substitution lookup 15 subtable" uy
Substitution2: "Single Substitution lookup 14 subtable" uy
EndChar

StartChar: ybu
Encoding: 57 60837 69
Width: 0
GlyphClass: 4
Flags: W
HStem: 610 21<-35.6638 36.5114> 772 21<-34.7879 35.6238>
VStem: -96 28<656.397 745.846> 69 28<656.397 745.846>
AnchorPoint: "Top" 0 701 mark 0
LayerCount: 2
Fore
SplineSet
0 793 m 0
 26 793 48.6669921875 784.833007812 68 768.5 c 0
 87.3330078125 752.166992188 97 730 97 702 c 0
 97 673.333007812 87.3330078125 650.833007812 68 634.5 c 0
 48.6669921875 618.166992188 26 610 0 610 c 0
 -25.3330078125 610 -47.6669921875 618.166992188 -67 634.5 c 0
 -86.3330078125 650.833007812 -96 673.333007812 -96 702 c 0
 -96 730 -86.3330078125 752.166992188 -67 768.5 c 0
 -47.6669921875 784.833007812 -25.3330078125 793 0 793 c 0
0 772 m 0
 -16 772 -31.3330078125 766 -46 754 c 0
 -60.6669921875 742 -68 724.333007812 -68 701 c 256
 -68 677.666992188 -60.6669921875 660.166992188 -46 648.5 c 0
 -31.3330078125 636.833007812 -16 631 0 631 c 0
 16.6669921875 631 32.3330078125 636.833007812 47 648.5 c 0
 61.6669921875 660.166992188 69 677.666992188 69 701 c 256
 69 724.333007812 61.6669921875 742 47 754 c 0
 32.3330078125 766 16.6669921875 772 0 772 c 0
EndSplineSet
MultipleSubs2: "Multiple Substitution lookup 67 subtable" denpabu ybu
EndChar

StartChar: aibu
Encoding: 58 60838 70
Width: 0
VWidth: 0
GlyphClass: 4
Flags: W
HStem: 569 39<-42 4.33428> 738 38<14.418 61>
VStem: -44 57<681.222 734.463> 6 58<611.127 667.254>
AnchorPoint: "Top" 0 657 mark 0
LayerCount: 2
Fore
SplineSet
13 711 m 0xe0
 13 705 16 699 21 694 c 0
 22 693 28 687 41 676 c 0
 47 670 52 663 57 656 c 0
 62 649 64 641 64 632 c 0
 64 623 61 615 56 607 c 0
 39 582 7 569 -42 569 c 1
 -42 608 l 1
 -10 608 6 618 6 635 c 0xd0
 6 640 4 646 -1 652 c 0
 -6 658 -12 664 -19 670 c 0
 -26 676 -32 683 -37 690 c 0
 -42 697 -44 705 -44 714 c 0
 -44 723 -42 731 -37 739 c 0
 -21 764 12 776 61 776 c 1
 61 738 l 1
 29 737 13 728 13 711 c 0xe0
EndSplineSet
MultipleSubs2: "Multiple Substitution lookup 68 subtable" denpabu aibu
Ligature2: "zlmVV subtable" abu ibu
LCarets2: 1 0
EndChar

StartChar: oibu
Encoding: 60 60840 72
Width: 0
GlyphClass: 4
Flags: HW
HStem: 635 221
VStem: -99 182.5
AnchorPoint: "Top" 0 701 mark 0
LayerCount: 2
Fore
SplineSet
-140 653 m 1
 -98 696 l 1
 9 776 16.2282546908 696 77 696 c 3
 104.625 696 116.83984375 720.735351562 134 749 c 1xb8
 148 742 l 1
 131.005859375 683.583007812 105.114257812 639 50 639 c 3
 -25.0195959604 639 -38 754 -140 653 c 1
18 867 m 0
 26 860.333007812 30.5 851.666992188 31.5 841 c 0
 32.5 830.333007812 28 818.333007812 18 805 c 0
 8 792.333007812 -4.3330078125 779.666992188 -19 767 c 0
 -33.6669921875 754.333007812 -50.8330078125 739.166992188 -70.5 721.5 c 0
 -90.1669921875 703.833007812 -113.333007812 681 -140 653 c 1
 -151 662 l 1
 -130.333007812 694.666992188 -113.833007812 722.666992188 -101.5 746 c 0
 -89.1669921875 769.333007812 -78.6669921875 789.666992188 -70 807 c 0
 -61.3330078125 824.333007812 -52 839.333007812 -42 852 c 0
 -32 865.333007812 -21.5 872.666992188 -10.5 874 c 0
 0.5 875.333007812 10 873 18 867 c 0
EndSplineSet
MultipleSubs2: "Multiple Substitution lookup 70 subtable" denpabu oibu
Ligature2: "zlmVV subtable" obu ibu
LCarets2: 1 0
EndChar

StartChar: aubu
Encoding: 61 60841 73
Width: 245
GlyphClass: 4
Flags: W
HStem: 708 128<-44.4045 36.4988>
VStem: 40 36<661.601 742>
AnchorPoint: "Top" 0 701 mark 0
LayerCount: 2
Fore
SplineSet
0 836 m 0
 14.6669921875 836 26.6669921875 833 36 827 c 0
 45.3330078125 821 53 813.333007812 59 804 c 0
 66.3330078125 793.333007812 71 781.666992188 73 769 c 0
 75 756.333007812 76 746 76 738 c 0
 76 705.333007812 67.6669921875 675.666992188 51 649 c 0
 34.3330078125 622.333007812 8.3330078125 600.666992188 -27 584 c 1
 -36 602 l 1
 -15.3330078125 610.666992188 2.5 624.333007812 17.5 643 c 0
 32.5 661.666992188 40 680.666992188 40 700 c 0
 40 708 39 715 37 721 c 1
 26.3330078125 712.333007812 14 708 0 708 c 0
 -17.3330078125 708 -32.3330078125 713.666992188 -45 725 c 0
 -57.6669921875 736.333007812 -64 752 -64 772 c 0
 -64 790.666992188 -57.6669921875 806 -45 818 c 0
 -32.3330078125 830 -17.3330078125 836 0 836 c 0
EndSplineSet
MultipleSubs2: "Multiple Substitution lookup 71 subtable" denpabu aubu
Ligature2: "zlmVV subtable" abu ubu
LCarets2: 1 0
EndChar

StartChar: uy
Encoding: 63 60843 75
Width: 489
GlyphClass: 2
Flags: W
HStem: -5 21G<231.693 264.628> 494 21<-2 24.0167 155.113 216 326 377.211 457.624 486>
AnchorPoint: "Bottom" 256 0 basechar 0
AnchorPoint: "Top" 251 701 basechar 0
LayerCount: 2
Fore
SplineSet
486 515 m 1
 486 495 l 1
 473.333333333 493.666666667 461.666666667 488 451 478 c 0
 440.333333333 468 430.333333333 450.333333333 421 425 c 2
 257 -5 l 2
 253 -5 253 -5 249 -5 c 0
 245 -5 245 -5 240 -5 c 1
 56 438 l 2
 45.3333333333 464 34.8333333333 479.833333333 24.5 485.5 c 0
 14.1666666667 491.166666667 5.33333333333 494 -2 494 c 1
 -2 515 l 1
 11.3333333333 514.333333333 25.1666666667 513.5 39.5 512.5 c 0
 53.8333333333 511.5 69.3333333333 511 86 511 c 0
 106.666666667 511 128.5 511.333333333 151.5 512 c 0
 174.5 512.666666667 196 513.666666667 216 515 c 1
 216 494 l 1
 199.333333333 494 184.5 492.833333333 171.5 490.5 c 0
 158.5 488.166666667 150.166666667 481.666666667 146.5 471 c 0
 142.833333333 460.333333333 146 442 156 416 c 2
 281 107 l 1
 275 102 l 1
 389 401 l 2
 401.666666667 434.333333333 403.166666667 457.666666667 393.5 471 c 0
 383.833333333 484.333333333 361.333333333 492.333333333 326 495 c 1
 326 515 l 1
 343.333333333 514.333333333 357.833333333 513.666666667 369.5 513 c 0
 381.166666667 512.333333333 394.666666667 512 410 512 c 256
 425.333333333 512 439.166666667 512.333333333 451.5 513 c 0
 463.833333333 513.666666667 475.333333333 514.333333333 486 515 c 1
EndSplineSet
EndChar

StartChar: uniEDAC
Encoding: 272 60844 76
Width: 446
VWidth: 988
GlyphClass: 2
Flags: W
HStem: 0 69<132 406> 730 20G<188.958 277>
VStem: 188 89<212.256 750>
AnchorPoint: "Top" 230 659 basechar 0
AnchorPoint: "Bottom" 228 0 basechar 0
LayerCount: 2
Fore
SplineSet
132 69 m 0
 406 69 l 1
 406 0 l 1
 29 0 l 1
 29 37 l 2
 29 48 30.0631501485 53.8825866241 32 55 c 0
 136 115 187.874648581 218.83413022 188 278 c 2
 189 750 l 0
 277 750 l 1
 277 324 l 2
 277 256.750789571 242 140 174 83 c 0
 132 69 l 0
EndSplineSet
EndChar

StartChar: seplimeabu
Encoding: 68 60848 80
Width: 465
GlyphClass: 3
Flags: W
HStem: 0 21<29 80.7902 235.924 301> 494 20<29 78.006 216.96 357.092>
VStem: 105 90<42.5742 477.525> 408 23<336 397.438>
AnchorPoint: "Bottom" 305 0 basechar 0
LayerCount: 2
Fore
SplineSet
435 514 m 1
 432.333333333 490.666666667 430.5 468.333333333 429.5 447 c 0
 428.5 425.666666667 428 409.333333333 428 398 c 0
 428 386 428.333333333 374.5 429 363.5 c 0
 429.666666667 352.5 430.333333333 343.333333333 431 336 c 1
 408 336 l 1
 404.666666667 375.333333333 400.166666667 406.5 394.5 429.5 c 0
 388.833333333 452.5 379.166666667 469 365.5 479 c 0
 351.833333333 489 331.333333333 494 304 494 c 0
 294 494 294 494 283 494 c 0
 272 494 272 494 261 494 c 0
 237 494 220 488.833333333 210 478.5 c 0
 200 468.166666667 195 449 195 421 c 2
 195 103 l 2
 195 70.3333333333 204.5 48.5 223.5 37.5 c 0
 242.5 26.5 268.333333333 21 301 21 c 1
 301 0 l 1
 285.666666667 0.666666666667 264 1.5 236 2.5 c 0
 208 3.5 178.333333333 4 147 4 c 0
 124.333333333 4 101.833333333 3.5 79.5 2.5 c 0
 57.1666666667 1.5 40.3333333333 0.666666666667 29 0 c 1
 29 21 l 1
 56.3333333333 21 75.8333333333 26 87.5 36 c 0
 99.1666666667 46 105 65 105 93 c 2
 105 421 l 2
 105 449 99.1666666667 468 87.5 478 c 0
 75.8333333333 488 56.3333333333 493 29 493 c 1
 29 514 l 1
 40.3333333333 513.333333333 57.6666666667 512.5 81 511.5 c 0
 104.333333333 510.5 127 510 149 510 c 256
 171 510 193.333333333 510.666666667 216 512 c 0
 238.666666667 513.333333333 259.666666667 514 279 514 c 2
 435 514 l 1
EndSplineSet
Ligature2: "zlmSF subtable" slakabu seplimeabu
LCarets2: 1 0
EndChar

StartChar: seplimeebu
Encoding: 69 60849 81
Width: 465
GlyphClass: 3
Flags: W
HStem: 0 21<29 80.7902 235.924 301> 238 55<195 398.222> 494 21<29 80.79 235.924 301>
VStem: 105 90<42.5742 238 293 472.426>
AnchorPoint: "Bottom" 307 0 basechar 0
LayerCount: 2
Fore
SplineSet
105 93 m 6
 105 422 l 6
 105 450 99.1669921875 469 87.5 479 c 4
 75.8330078125 489 56.3330078125 494 29 494 c 5
 29 515 l 5
 40.3330078125 514.333007812 57.1669921875 513.5 79.5 512.5 c 4
 101.833007812 511.5 124.333007812 511 147 511 c 4
 178.333007812 511 208 511.5 236 512.5 c 4
 264 513.5 285.666992188 514.333007812 301 515 c 5
 301 494 l 5
 268.333007812 494 242.5 488.5 223.5 477.5 c 4
 204.5 466.5 195 444.666992188 195 412 c 6
 195 293 l 5
 398.221679688 293 l 5
 398.221679688 238 l 5
 195 238 l 5
 195 103 l 6
 195 70 204.5 48.5 223.5 37.5 c 4
 242.5 26.5 268.333333333 21 301 21 c 5
 301 0 l 5
 285.666666667 0.666666666667 264 1.5 236 2.5 c 4
 208 3.5 178.333333333 4 147 4 c 4
 124.333333333 4 101.833333333 3.5 79.5 2.5 c 4
 57.1666666667 1.5 40.3333333333 0.666666666667 29 0 c 5
 29 21 l 5
 56.3333333333 21 75.8333333333 26 87.5 36 c 4
 99.1666666667 46 105 65 105 93 c 6
EndSplineSet
LCarets2: 1 0
Ligature2: "zlmSF subtable" slakabu seplimeebu
EndChar

StartChar: seplimeibu
Encoding: 70 60850 82
Width: 611
GlyphClass: 3
Flags: W
HStem: 0 21<29 80.7902 215.777 261 350 395.223 530.21 582> 493 21<29 80.7902 215.777 395.223 530.21 582>
VStem: 105 90<36.4753 477.525> 416 90<36.4753 477.525>
AnchorPoint: "Bottom" 285 0 basechar 0
LayerCount: 2
Fore
SplineSet
582 514 m 1
 582 493 l 1
 554.666666667 493 535.166666667 488 523.5 478 c 0
 511.833333333 468 506 449 506 421 c 2
 506 93 l 2
 506 65 511.833333333 46 523.5 36 c 0
 535.166666667 26 554.666666667 21 582 21 c 1
 582 0 l 1
 570.666666667 0.666666666667 553.333333333 1.5 530 2.5 c 0
 506.666666667 3.5 484 4 462 4 c 256
 440 4 418.5 3.5 397.5 2.5 c 0
 376.5 1.5 360.666666667 0.666666666667 350 0 c 1
 350 21 l 1
 374 21 391 26 401 36 c 0
 411 46 416 65 416 93 c 2
 416 421 l 2
 416 449 411 468 401 478 c 0
 391 488 374 493 350 493 c 2
 261 493 l 2
 237 493 220 488 210 478 c 0
 200 468 195 449 195 421 c 2
 195 93 l 2
 195 65 200 46 210 36 c 0
 220 26 237 21 261 21 c 1
 261 0 l 1
 250.333333333 0.666666666667 234.5 1.5 213.5 2.5 c 0
 192.5 3.5 171 4 149 4 c 256
 127 4 104.333333333 3.5 81 2.5 c 0
 57.6666666667 1.5 40.3333333333 0.666666666667 29 0 c 1
 29 21 l 1
 56.3333333333 21 75.8333333333 26 87.5 36 c 0
 99.1666666667 46 105 65 105 93 c 2
 105 421 l 2
 105 449 99.1666666667 468 87.5 478 c 0
 75.8333333333 488 56.3333333333 493 29 493 c 1
 29 514 l 1
 40.3333333333 513.333333333 57.6666666667 512.5 81 511.5 c 0
 104.333333333 510.5 127 510 149 510 c 0
 181 510 209.5 510.666666667 234.5 512 c 0
 259.5 513.333333333 285 514 311 514 c 256
 337 514 360.666666667 513.333333333 382 512 c 0
 403.333333333 510.666666667 430 510 462 510 c 0
 484 510 506.666666667 510.5 530 511.5 c 0
 553.333333333 512.5 570.666666667 513.333333333 582 514 c 1
EndSplineSet
LCarets2: 1 0
Ligature2: "zlmSF subtable" slakabu seplimeibu
EndChar

StartChar: seplimeobu
Encoding: 71 60851 83
Width: 465
GlyphClass: 3
Flags: W
HStem: 0 20<106.908 247.04 385.994 435> 493 21<163 228.076 383.21 435>
VStem: 33 23<116.562 178> 269 90<36.4753 471.426>
AnchorPoint: "Bottom" 278 0 basechar 0
LayerCount: 2
Fore
SplineSet
29 0 m 1
 31.6669921875 23.3330078125 33.5 45.6669921875 34.5 67 c 0
 35.5 88.3330078125 36 104.666992188 36 116 c 0
 36 128 35.6669921875 139.5 35 150.5 c 0
 34.3330078125 161.5 33.6669921875 170.666992188 33 178 c 1
 56 178 l 1
 59.3330078125 138.666992188 63.8330078125 107.5 69.5 84.5 c 0
 75.1669921875 61.5 84.8330078125 45 98.5 35 c 0
 112.166992188 25 132.666992188 20 160 20 c 0
 170 20 170 20 181 20 c 0
 192 20 192 20 203 20 c 0
 227 20 244 25.1669921875 254 35.5 c 0
 264 45.8330078125 269 65 269 93 c 2
 269 411 l 2
 269 443.666992188 259.5 465.5 240.5 476.5 c 0
 221.5 487.5 195.666992188 493 163 493 c 1
 163 514 l 1
 178.333007812 513.333007812 200 512.5 228 511.5 c 0
 256 510.5 285.666992188 510 317 510 c 0
 339.666992188 510 362.166992188 510.5 384.5 511.5 c 0
 406.833007812 512.5 423.666992188 513.333007812 435 514 c 1
 435 493 l 1
 407.666992188 493 388.166992188 488 376.5 478 c 0
 364.833007812 468 359 449 359 421 c 2
 359 93 l 2
 359 65 364.833007812 46 376.5 36 c 0
 388.166992188 26 407.666992188 21 435 21 c 1
 435 0 l 1
 423.666992188 0.6669921875 406.333007812 1.5 383 2.5 c 0
 359.666992188 3.5 337 4 315 4 c 256
 293 4 270.666992188 3.3330078125 248 2 c 0
 225.333007812 0.6669921875 204.333007812 0 185 0 c 2
 29 0 l 1
EndSplineSet
LCarets2: 1 0
Ligature2: "zlmSF subtable" slakabu seplimeobu
EndChar

StartChar: seplimeubu
Encoding: 72 60852 84
Width: 611
GlyphClass: 3
Flags: W
HStem: 2 19<29 78.7191 217.567 393.433 532.281 582> 493 21<29 80.79 215.777 261 350 395.223 530.21 582>
VStem: 105 90<36.4753 477.525> 416 90<36.4753 477.525>
AnchorPoint: "Bottom" 286 0 basechar 0
LayerCount: 2
Fore
SplineSet
29 0 m 1
 29 21 l 1
 56.3330078125 21 75.8330078125 26 87.5 36 c 0
 99.1669921875 46 105 65 105 93 c 2
 105 421 l 2
 105 449 99.1669921875 468 87.5 478 c 0
 75.8330078125 488 56.3330078125 493 29 493 c 1
 29 514 l 1
 40.3330078125 513.333007812 57.6669921875 512.5 81 511.5 c 0
 104.333007812 510.5 127 510 149 510 c 256
 171 510 192.5 510.5 213.5 511.5 c 0
 234.5 512.5 250.333007812 513.333007812 261 514 c 1
 261 493 l 1
 237 493 220 488 210 478 c 0
 200 468 195 449 195 421 c 2
 195 93 l 2
 195 65 200 46 210 36 c 0
 220 26 237 21 261 21 c 2
 350 21 l 2
 374 21 391 26 401 36 c 0
 411 46 416 65 416 93 c 2
 416 421 l 2
 416 449 411 468 401 478 c 0
 391 488 374 493 350 493 c 1
 350 514 l 1
 360.666992188 513.333007812 376.5 512.5 397.5 511.5 c 0
 418.5 510.5 440 510 462 510 c 256
 484 510 506.666992188 510.5 530 511.5 c 0
 553.333007812 512.5 570.666992188 513.333007812 582 514 c 1
 582 493 l 1
 554.666992188 493 535.166992188 488 523.5 478 c 0
 511.833007812 468 506 449 506 421 c 2
 506 93 l 2
 506 65 511.833007812 46 523.5 36 c 0
 535.166992188 26 554.666992188 21 582 21 c 1
 582 0 l 1
 570.666992188 0.6669921875 553.333007812 1.5 530 2.5 c 0
 506.666992188 3.5 484 4 462 4 c 0
 430 4 401.5 3.3330078125 376.5 2 c 0
 351.5 0.6669921875 326 0 300 0 c 256
 274 0 250.333007812 0.6669921875 229 2 c 0
 207.666992188 3.3330078125 181 4 149 4 c 0
 127 4 104.333007812 3.5 81 2.5 c 0
 57.6669921875 1.5 40.3330078125 0.6669921875 29 0 c 1
EndSplineSet
LCarets2: 1 0
Ligature2: "zlmSF subtable" slakabu seplimeubu
EndChar

StartChar: seplimeybu
Encoding: 73 60853 85
Width: 507
GlyphClass: 3
Flags: W
HStem: 0 21<136 187.79 340.998 390> 238 55<69 212 302 445.222> 494 21<136 187.79 340.998 390>
VStem: 212 90<42.5742 238 293 472.426>
AnchorPoint: "Bottom" 254 1 basechar 0
LayerCount: 2
Fore
SplineSet
302 238 m 1
 302 103 l 2
 302 70 311.5 48.5 330.5 37.5 c 0
 349.5 26.5 357.333007812 21 390 21 c 1
 390 0 l 1
 374.666992188 0.6669921875 371 1.5 343 2.5 c 0
 315 3.5 285.333007812 4 254 4 c 0
 231.333007812 4 208.833007812 3.5 186.5 2.5 c 0
 164.166992188 1.5 147.333007812 0.6669921875 136 0 c 1
 136 21 l 1
 163.333007812 21 182.833007812 26 194.5 36 c 0
 206.166992188 46 212 65 212 93 c 2
 212 238 l 1
 69 238 l 1
 69 293 l 1
 212 293 l 1
 212 422 l 2
 212 450 206.166992188 469 194.5 479 c 0
 182.833007812 489 163.333007812 494 136 494 c 1
 136 515 l 1
 147.333007812 514.333007812 164.166992188 513.5 186.5 512.5 c 0
 208.833007812 511.5 231.333007812 511 254 511 c 0
 285.333007812 511 315 511.5 343 512.5 c 0
 371 513.5 374.666992188 514.333007812 390 515 c 1
 390 494 l 1
 357.333007812 494 349.5 488.5 330.5 477.5 c 0
 311.5 466.5 302 445 302 412 c 2
 302 293 l 1
 445.221679688 293 l 1
 445.221679688 238 l 1
 302 238 l 1
EndSplineSet
LCarets2: 1 0
Ligature2: "zlmSF subtable" slakabu seplimeybu
EndChar

StartChar: seplimeaibu
Encoding: 74 60854 86
Width: 465
GlyphClass: 3
Flags: HW
AnchorPoint: "Bottom" 287 0 basechar 0
LayerCount: 2
Fore
SplineSet
195 93 m 17
 195 65 200 45.8330078125 210 35.5 c 128
 220 25.1669921875 237 20 261 20 c 0
 272 20 272 20 283 20 c 128
 294 20 294 20 304 20 c 0
 331.333007812 20 351.833007812 25 365.5 35 c 128
 379.166992188 45 388.833007812 61.5 394.5 84.5 c 128
 400.166992188 107.5 404.666992188 138.666992188 408 178 c 1
 431 178 l 1
 430.333007812 170.666992188 429.666992188 161.5 429 150.5 c 128
 428.333007812 139.5 428 128 428 116 c 0
 428 104.666992188 428.5 88.3330078125 429.5 67 c 128
 430.5 45.6669921875 432.333007812 23.3330078125 435 0 c 1
 279 0 l 2
 259.666992188 0 238.666992188 0.6669921875 216 2 c 128
 193.333007812 3.3330078125 171 4 149 4 c 256
 127 4 104.333007812 3.5 81 2.5 c 128
 57.6669921875 1.5 40.3330078125 0.6669921875 29 0 c 1
 29 21 l 1
 56.3330078125 21 75.8330078125 26 87.5 36 c 128
 99.1669921875 46 105 65 105 93 c 2
 105 421 l 17
 105 449 99.1666666667 468 87.5 478 c 128
 75.8333333333 488 56.3333333333 493 29 493 c 1
 29 514 l 1
 40.3333333333 513.333333333 57.6666666667 512.5 81 511.5 c 128
 104.333333333 510.5 127 510 149 510 c 256
 171 510 193.333333333 510.666666667 216 512 c 128
 238.666666667 513.333333333 259.666666667 514 279 514 c 2
 435 514 l 1
 432.333333333 490.666666667 430.5 468.333333333 429.5 447 c 128
 428.5 425.666666667 428 409.333333333 428 398 c 0
 428 386 428.333333333 374.5 429 363.5 c 128
 429.666666667 352.5 430.333333333 343.333333333 431 336 c 1
 408 336 l 1
 404.666666667 375.333333333 400.166666667 406.5 394.5 429.5 c 128
 388.833333333 452.5 379.166666667 469 365.5 479 c 128
 351.833333333 489 331.333333333 494 304 494 c 0
 294 494 294 494 283 494 c 128
 272 494 272 494 261 494 c 0
 237 494 220 488.833333333 210 478.5 c 128
 200 468.166666667 195 449 195 421 c 2
 195 93 l 17
EndSplineSet
LCarets2: 1 0
Ligature2: "zlmSFF subtable" slakabu seplimeaibu
Ligature2: "zlmFF subtable" seplimeabu seplimeibu
EndChar

StartChar: seplimeeibu
Encoding: 75 60855 87
Width: 447
GlyphClass: 3
Flags: W
HStem: -14 20<166.793 262.729> -7 21G<56 80.3333> 510 19<174.571 266.783>
VStem: 60 75<377.691 475.087> 60 23<-7 26.2303 126.996 193> 311 89<52.2704 162.654> 353 23<358 404.585 486.01 528>
AnchorPoint: "Bottom" 225 0 basechar 0
LayerCount: 2
Fore
SplineSet
208 529 m 0xb4
 234.666666667 529 257.333333333 524.666666667 276 516 c 0
 294.666666667 507.333333333 308.333333333 499.333333333 317 492 c 0
 339 474 352.333333333 486 357 528 c 1
 380 528 l 1
 378.666666667 509.333333333 377.666666667 487.166666667 377 461.5 c 0
 376.333333333 435.833333333 376 401.333333333 376 358 c 1
 353 358 l 1xb2
 349 382.666666667 342.166666667 406.666666667 332.5 430 c 0
 322.833333333 453.333333333 308.666666667 472.5 290 487.5 c 0
 271.333333333 502.5 247 510 217 510 c 0
 193.666666667 510 174.166666667 503.5 158.5 490.5 c 0
 142.833333333 477.5 135 458.333333333 135 433 c 0
 135 413 141 395.833333333 153 381.5 c 0
 165 367.166666667 180.666666667 353.833333333 200 341.5 c 0
 219.333333333 329.166666667 240.333333333 315.666666667 263 301 c 0
 301 276.333333333 333.333333333 251.333333333 360 226 c 0
 386.666666667 200.666666667 400 167.333333333 400 126 c 0xb4
 400 95.3333333333 392 69.6666666667 376 49 c 0
 360 28.3333333333 339.166666667 12.6666666667 313.5 2 c 0
 287.833333333 -8.66666666667 259.666666667 -14 229 -14 c 0xa2
 214.333333333 -14 200.5 -12.8333333333 187.5 -10.5 c 0
 174.5 -8.16666666667 162 -4.66666666667 150 0 c 0
 143.333333333 3.33333333333 136.5 7.33333333333 129.5 12 c 0
 122.5 16.6666666667 115.666666667 21.6666666667 109 27 c 256
 102.333333333 32.3333333333 96.3333333333 32.1666666667 91 26.5 c 0
 85.6666666667 20.8333333333 81.6666666667 9.66666666667 79 -7 c 1
 56 -7 l 1
 57.3333333333 14.3333333333 58.3333333333 40.3333333333 59 71 c 0
 59.6666666667 101.666666667 60 142.333333333 60 193 c 1
 83 193 l 1x6a
 87.6666666667 155.666666667 94.3333333333 123 103 95 c 0
 111.666666667 67 125.333333333 45.1666666667 144 29.5 c 0
 162.666666667 13.8333333333 188.666666667 6 222 6 c 0
 242 6 261.833333333 13 281.5 27 c 0
 301.166666667 41 311 65.6666666667 311 101 c 0
 311 130.333333333 300.333333333 154.333333333 279 173 c 0
 257.666666667 191.666666667 230.666666667 211.333333333 198 232 c 0
 174 247.333333333 151.5 262.666666667 130.5 278 c 0
 109.5 293.333333333 92.5 310.666666667 79.5 330 c 0
 66.5 349.333333333 60 372.666666667 60 400 c 0
 60 430 66.8333333333 454.5 80.5 473.5 c 0
 94.1666666667 492.5 112.333333333 506.5 135 515.5 c 0
 157.666666667 524.5 182 529 208 529 c 0xb4
EndSplineSet
LCarets2: 1 0
Ligature2: "zlmSFF subtable" slakabu seplimeeibu
Ligature2: "zlmFF subtable" seplimeebu seplimeibu
EndChar

StartChar: seplimeoibu
Encoding: 76 60856 88
Width: 465
GlyphClass: 3
Flags: W
HStem: 0 20<106.908 247.04 385.994 435> 494 20<106.908 247.04 385.994 435>
VStem: 33 23<116.562 178 336 397.438> 269 90<36.4753 477.525>
AnchorPoint: "Bottom" 283 0 basechar 0
LayerCount: 2
Fore
SplineSet
269 421 m 17
 269 449 264 468.166992188 254 478.5 c 0
 244 488.833007812 227 494 203 494 c 0
 192 494 192 494 181 494 c 0
 170 494 170 494 160 494 c 0
 132.666992188 494 112.166992188 489 98.5 479 c 0
 84.8330078125 469 75.1669921875 452.5 69.5 429.5 c 0
 63.8330078125 406.5 59.3330078125 375.333007812 56 336 c 1
 33 336 l 1
 33.6669921875 343.333007812 34.3330078125 352.5 35 363.5 c 0
 35.6669921875 374.5 36 386 36 398 c 0
 36 409.333007812 35.5 425.666992188 34.5 447 c 0
 33.5 468.333007812 31.6669921875 490.666992188 29 514 c 1
 185 514 l 2
 204.333007812 514 225.333007812 513.333007812 248 512 c 0
 270.666992188 510.666992188 293 510 315 510 c 256
 337 510 359.666992188 510.5 383 511.5 c 0
 406.333007812 512.5 423.666992188 513.333007812 435 514 c 1
 435 493 l 1
 407.666992188 493 388.166992188 488 376.5 478 c 0
 364.833007812 468 359 449 359 421 c 2
 359 93 l 17
 359 65 364.833007812 46 376.5 36 c 0
 388.166992188 26 407.666992188 21 435 21 c 1
 435 0 l 1
 423.666992188 0.6669921875 406.333007812 1.5 383 2.5 c 0
 359.666992188 3.5 337 4 315 4 c 256
 293 4 270.666992188 3.3330078125 248 2 c 0
 225.333007812 0.6669921875 204.333007812 0 185 0 c 2
 29 0 l 1
 31.6669921875 23.3330078125 33.5 45.6669921875 34.5 67 c 0
 35.5 88.3330078125 36 104.666992188 36 116 c 0
 36 128 35.6669921875 139.5 35 150.5 c 0
 34.3330078125 161.5 33.6669921875 170.666992188 33 178 c 1
 56 178 l 1
 59.3330078125 138.666992188 63.8330078125 107.5 69.5 84.5 c 0
 75.1669921875 61.5 84.8330078125 45 98.5 35 c 0
 112.166992188 25 132.666992188 20 160 20 c 0
 170 20 170 20 181 20 c 0
 192 20 192 20 203 20 c 0
 227 20 244 25.1669921875 254 35.5 c 0
 264 45.8330078125 269 65 269 93 c 2
 269 421 l 17
EndSplineSet
LCarets2: 1 0
Ligature2: "zlmSFF subtable" slakabu seplimeoibu
Ligature2: "zlmFF subtable" seplimeobu seplimeibu
EndChar

StartChar: seplimeaubu
Encoding: 77 60857 89
Width: 519
GlyphClass: 3
Flags: W
HStem: 0 20<21 49.0874 165.468 211 317 349.181 482.248 506> 494 21<23 51.418 180.408 212 326 372.213 456.206 486>
AnchorPoint: "Bottom" 244 0 basechar 0
LayerCount: 2
Fore
SplineSet
486 515 m 1
 486 495 l 1
 473.333333333 493.666666667 459.5 487.166666667 444.5 475.5 c 0
 429.5 463.833333333 414 447 398 425 c 2
 296.933798229 285.264990595 l 1
 444 71 l 2
 455.333333333 54.3333333333 465.333333333 42.5 474 35.5 c 0
 482.666666667 28.5 493.333333333 23.6666666667 506 21 c 1
 506 0 l 1
 499.333333333 0.666666666667 489.166666667 1.5 475.5 2.5 c 0
 461.833333333 3.5 448.333333333 4 435 4 c 0
 414.333333333 4 392.166666667 3.5 368.5 2.5 c 0
 344.833333333 1.5 327.666666667 0.666666666667 317 0 c 1
 317 21 l 1
 330.333333333 21 341.333333333 24.1666666667 350 30.5 c 0
 358.666666667 36.8333333333 359.333333333 45 352 55 c 2
 238.036958264 221.036042079 l 1
 165 126 l 2
 147.666666667 103.333333333 138.5 84.3333333333 137.5 69 c 0
 136.5 53.6666666667 142.666666667 42.1666666667 156 34.5 c 0
 169.333333333 26.8333333333 187.666666667 22 211 20 c 1
 211 0 l 1
 199.666666667 0.666666666667 187 1.16666666667 173 1.5 c 0
 159 1.83333333333 145.5 2.16666666667 132.5 2.5 c 0
 119.5 2.83333333333 107.666666667 3 97 3 c 0
 67.6666666667 3 42.3333333333 2 21 0 c 1
 21 20 l 1
 33.6666666667 21.3333333333 46.8333333333 27.1666666667 60.5 37.5 c 0
 74.1666666667 47.8333333333 90.3333333333 65.3333333333 109 90 c 2
 224.078512268 241.372504599 l 1
 85 444 l 2
 71.6666666667 463.333333333 61 476.166666667 53 482.5 c 0
 45 488.833333333 35 492.666666667 23 494 c 1
 23 515 l 1
 29.6666666667 514.333333333 40 513.5 54 512.5 c 0
 68 511.5 81.3333333333 511 94 511 c 0
 115.333333333 511 137.666666667 511.5 161 512.5 c 0
 184.333333333 513.5 201.333333333 514.333333333 212 515 c 1
 212 494 l 1
 199.333333333 494 188.666666667 491 180 485 c 0
 171.333333333 479 170.333333333 470.666666667 177 460 c 2
 283.835932374 304.347649087 l 1
 353 401 l 2
 375 432.333333333 384.833333333 455.166666667 382.5 469.5 c 0
 380.166666667 483.833333333 361.333333333 492.333333333 326 495 c 1
 326 515 l 1
 343.333333333 514.333333333 357.833333333 513.666666667 369.5 513 c 0
 381.166666667 512.333333333 394.666666667 512 410 512 c 0
 440 512 465.333333333 513 486 515 c 1
EndSplineSet
LCarets2: 1 0
Ligature2: "zlmSFF subtable" slakabu seplimeaubu
Ligature2: "zlmFF subtable" seplimeabu seplimeubu
EndChar

StartChar: uniEDBC
Encoding: 278 60860 92
Width: 446
VWidth: 988
GlyphClass: 2
Flags: W
HStem: -250 21G<158 246> 431 69<29 302>
VStem: 158 88<-250 260.403>
AnchorPoint: "Top" 208 658 basechar 0
AnchorPoint: "Bottom" 203 0 basechar 0
LayerCount: 2
Fore
SplineSet
302 431 m 0
 29 431 l 1
 29 500 l 1
 406 500 l 1
 406 464 l 2
 406 453 404.936849852 446.117413376 403 445 c 0
 299 385 246 222 246 222 c 2
 246 -250 l 0
 158 -250 l 1
 158 176 l 2
 158 176 192 360 260 417 c 0
 302 431 l 0
EndSplineSet
EndChar

StartChar: bahebu_bahebu
Encoding: 78 -1 96
Width: 0
VWidth: 0
GlyphClass: 4
Flags: W
HStem: -194 124<-403.03 -308.583 -226.03 -131.583>
VStem: -417 123<-179.661 -84.3391> -240 123<-179.661 -84.3391>
AnchorPoint: "Bottom" -267 0 mark 0
LayerCount: 2
Fore
SplineSet
-417 -132 m 4
 -417 -123 -416 -116 -413 -108 c 4
 -410 -100 -405 -94 -400 -88 c 4
 -395 -82 -388 -78 -380 -75 c 4
 -372 -72 -365 -70 -356 -70 c 260
 -347 -70 -340 -72 -332 -75 c 4
 -324 -78 -318 -82 -312 -88 c 4
 -306 -94 -302 -100 -299 -108 c 4
 -296 -116 -294 -123 -294 -132 c 4
 -294 -141 -296 -149 -299 -156 c 4
 -302 -163 -306 -170 -312 -176 c 4
 -318 -182 -324 -186 -332 -189 c 4
 -340 -192 -347 -194 -356 -194 c 260
 -365 -194 -372 -192 -380 -189 c 4
 -388 -186 -395 -182 -400 -176 c 4
 -405 -170 -410 -163 -413 -156 c 4
 -416 -149 -417 -141 -417 -132 c 4
-240 -132 m 4
 -240 -123 -239 -116 -236 -108 c 4
 -233 -100 -228 -94 -223 -88 c 4
 -218 -82 -211 -78 -203 -75 c 4
 -195 -72 -188 -70 -179 -70 c 260
 -170 -70 -163 -72 -155 -75 c 4
 -147 -78 -141 -82 -135 -88 c 4
 -129 -94 -125 -100 -122 -108 c 4
 -119 -116 -117 -123 -117 -132 c 4
 -117 -141 -119 -149 -122 -156 c 4
 -125 -163 -129 -170 -135 -176 c 4
 -141 -182 -147 -186 -155 -189 c 4
 -163 -192 -170 -194 -179 -194 c 260
 -188 -194 -195 -192 -203 -189 c 4
 -211 -186 -218 -182 -223 -176 c 4
 -228 -170 -233 -163 -236 -156 c 4
 -239 -149 -240 -141 -240 -132 c 4
EndSplineSet
Ligature2: "zlmBahebu subtable" bahebu bahebu
LCarets2: 1 0
EndChar

StartChar: bahebu_bahebu_bahebu
Encoding: 79 -1 97
Width: 0
VWidth: 0
GlyphClass: 4
Flags: W
HStem: -313 124<-315.03 -220.583> -189 124<-404.03 -309.583 -227.03 -132.583>
VStem: -418 123<-174.661 -79.3391> -329 123<-298.661 -203.339> -241 123<-174.661 -79.3391>
AnchorPoint: "Bottom" -268 0 mark 0
LayerCount: 2
Fore
SplineSet
-329 -251 m 0x90
 -329 -242 -328 -235 -325 -227 c 0
 -322 -219 -317 -213 -312 -207 c 0
 -307 -201 -300 -197 -292 -194 c 0
 -284 -191 -277 -189 -268 -189 c 256
 -259 -189 -252 -191 -244 -194 c 0
 -236 -197 -230 -201 -224 -207 c 0
 -218 -213 -214 -219 -211 -227 c 0
 -208 -235 -206 -242 -206 -251 c 0
 -206 -260 -208 -268 -211 -275 c 0
 -214 -282 -218 -289 -224 -295 c 0
 -230 -301 -236 -305 -244 -308 c 0
 -252 -311 -259 -313 -268 -313 c 256
 -277 -313 -284 -311 -292 -308 c 0
 -300 -305 -307 -301 -312 -295 c 0
 -317 -289 -322 -282 -325 -275 c 0
 -328 -268 -329 -260 -329 -251 c 0x90
-418 -127 m 0x60
 -418 -118 -417 -111 -414 -103 c 0
 -411 -95 -406 -89 -401 -83 c 0
 -396 -77 -389 -73 -381 -70 c 0
 -373 -67 -366 -65 -357 -65 c 256
 -348 -65 -341 -67 -333 -70 c 0
 -325 -73 -319 -77 -313 -83 c 0
 -307 -89 -303 -95 -300 -103 c 0
 -297 -111 -295 -118 -295 -127 c 0
 -295 -136 -297 -144 -300 -151 c 0
 -303 -158 -307 -165 -313 -171 c 0
 -319 -177 -325 -181 -333 -184 c 0
 -341 -187 -348 -189 -357 -189 c 256
 -366 -189 -373 -187 -381 -184 c 0
 -389 -181 -396 -177 -401 -171 c 0
 -406 -165 -411 -158 -414 -151 c 0
 -417 -144 -418 -136 -418 -127 c 0x60
-241 -127 m 0x48
 -241 -118 -240 -111 -237 -103 c 0
 -234 -95 -229 -89 -224 -83 c 0
 -219 -77 -212 -73 -204 -70 c 0
 -196 -67 -189 -65 -180 -65 c 256
 -171 -65 -164 -67 -156 -70 c 0
 -148 -73 -142 -77 -136 -83 c 0
 -130 -89 -126 -95 -123 -103 c 0
 -120 -111 -118 -118 -118 -127 c 0
 -118 -136 -120 -144 -123 -151 c 0
 -126 -158 -130 -165 -136 -171 c 0
 -142 -177 -148 -181 -156 -184 c 0
 -164 -187 -171 -189 -180 -189 c 256
 -189 -189 -196 -187 -204 -184 c 0
 -212 -181 -219 -177 -224 -171 c 0
 -229 -165 -234 -158 -237 -151 c 0
 -240 -144 -241 -136 -241 -127 c 0x48
EndSplineSet
Ligature2: "zlmBahebu subtable" bahebu bahebu bahebu
LCarets2: 2 0 0
EndChar

StartChar: smajibu.init
Encoding: 48 -1 98
Width: 416
VWidth: 988
GlyphClass: 2
Flags: W
HStem: 224 74<70 427>
LayerCount: 2
Fore
SplineSet
70 298 m 1
 427 298 l 1
 427 224 l 1
 70 224 l 1
 70 298 l 1
EndSplineSet
EndChar

StartChar: smajibu.medi
Encoding: 49 -1 99
Width: 416
VWidth: 988
GlyphClass: 2
Flags: W
HStem: 224 74<-10 427>
LayerCount: 2
Fore
SplineSet
-10 298 m 1
 427 298 l 1
 427 224 l 1
 -10 224 l 1
 -10 298 l 1
EndSplineSet
EndChar

StartChar: smajibu.fina
Encoding: 50 -1 100
Width: 416
VWidth: 988
GlyphClass: 2
Flags: W
HStem: 224 74<-10 343>
LayerCount: 2
Fore
SplineSet
-10 298 m 1
 343 298 l 1
 343 224 l 1
 -10 224 l 1
 -10 298 l 1
EndSplineSet
EndChar

StartChar: denpabu.cas
Encoding: 51 -1 101
Width: 283
Flags: HW
HStem: 306 87<27.1897 209.657> 480 20G<304 340>
VStem: 18 322
AnchorPoint: "Top" 117 701 basechar 0
AnchorPoint: "Bottom" 124 0 basechar 0
LayerCount: 2
Back
SplineSet
132 332 m 256
 149.333333333 332 164.333333333 325.666666667 177 313 c 0
 189.666666667 300.333333333 196 285.333333333 196 268 c 256
 196 250.666666667 189.666666667 235.666666667 177 223 c 0
 164.333333333 210.333333333 149.333333333 204 132 204 c 256
 114.666666667 204 99.6666666667 210.333333333 87 223 c 0
 74.3333333333 235.666666667 68 250.666666667 68 268 c 256
 68 285.333333333 74.3333333333 300.333333333 87 313 c 0
 99.6666666667 325.666666667 114.666666667 332 132 332 c 256
EndSplineSet
Fore
SplineSet
474 450 m 1
 474 450 472.833007812 342.833007812 450.5 300.5 c 0
 428.166992188 258.166992188 398 225.5 360 202.5 c 0
 322 179.5 279.333007812 168 232 168 c 0
 214 168 196.166992188 170 178.5 174 c 0
 160.833007812 178 144 184.666992188 128 194 c 0
 114 202.666992188 102 213.333007812 92 226 c 0
 82 238.666992188 77 253 77 269 c 0
 77 285.666992188 82.6669921875 298.833007812 94 308.5 c 0
 105.333007812 318.166992188 118.333007812 323 133 323 c 0
 148.333007812 323 161.333007812 318.166992188 172 308.5 c 0
 182.666992188 298.833007812 188 286 188 270 c 0
 188 255.333007812 183.5 243.333007812 174.5 234 c 0
 165.5 224.666992188 155 218.666992188 143 216 c 1
 149 204 161.333007812 196 180 192 c 0
 198.666992188 188 214.333007812 186 227 186 c 0
 253.666992188 186 279.166992188 193.333007812 303.5 208 c 0
 327.833007812 222.666992188 347.833007812 248.333007812 363.5 285 c 0
 379.166992188 321.666992188 387 373 387 439 c 0
 387 498.333007812 474 450 474 450 c 1
EndSplineSet
EndChar

StartChar: yhy.cas
Encoding: 67 -1 109
Width: 293
Flags: W
HStem: 0 21<29 80.7902 219.21 271> 494 21<29 76.2656> 506 20G<187.667 195>
VStem: 105 90<36.4753 471.822>
AnchorPoint: "Top" 143 701 basechar 0
AnchorPoint: "Bottom" 119 0 basechar 0
LayerCount: 2
Fore
SplineSet
195 526 m 1xb0
 195 93 l 2
 195 65 200.833333333 46 212.5 36 c 0
 224.166666667 26 243.666666667 21 271 21 c 1
 271 0 l 1
 259.666666667 0.666666666667 242.5 1.5 219.5 2.5 c 0
 196.5 3.5 173.333333333 4 150 4 c 0
 127.333333333 4 104.333333333 3.5 81 2.5 c 0
 57.6666666667 1.5 40.3333333333 0.666666666667 29 0 c 1
 29 21 l 1
 56.3333333333 21 75.8333333333 26 87.5 36 c 0
 99.1666666667 46 105 65 105 93 c 2
 105 406 l 2
 105 436 99.6666666667 458.166666667 89 472.5 c 0
 78.3333333333 486.833333333 58.3333333333 494 29 494 c 1
 29 515 l 1xd0
 50.3333333333 513 71 512 91 512 c 0
 110.333333333 512 128.833333333 513.166666667 146.5 515.5 c 0
 164.166666667 517.833333333 180.333333333 521.333333333 195 526 c 1xb0
EndSplineSet
EndChar
